<svg id="my-svg" width="100%" xmlns="http://www.w3.org/2000/svg" xmlns:xlink="http://www.w3.org/1999/xlink" class="classDiagram" style="max-width: 726.346px; background-color: white;" viewBox="0 0 726.345703125 910" role="graphics-document document" aria-roledescription="class"><style>#my-svg{font-family:"trebuchet ms",verdana,arial,sans-serif;font-size:16px;fill:#333;}@keyframes edge-animation-frame{from{stroke-dashoffset:0;}}@keyframes dash{to{stroke-dashoffset:0;}}#my-svg .edge-animation-slow{stroke-dasharray:9,5!important;stroke-dashoffset:900;animation:dash 50s linear infinite;stroke-linecap:round;}#my-svg .edge-animation-fast{stroke-dasharray:9,5!important;stroke-dashoffset:900;animation:dash 20s linear infinite;stroke-linecap:round;}#my-svg .error-icon{fill:#552222;}#my-svg .error-text{fill:#552222;stroke:#552222;}#my-svg .edge-thickness-normal{stroke-width:1px;}#my-svg .edge-thickness-thick{stroke-width:3.5px;}#my-svg .edge-pattern-solid{stroke-dasharray:0;}#my-svg .edge-thickness-invisible{stroke-width:0;fill:none;}#my-svg .edge-pattern-dashed{stroke-dasharray:3;}#my-svg .edge-pattern-dotted{stroke-dasharray:2;}#my-svg .marker{fill:#333333;stroke:#333333;}#my-svg .marker.cross{stroke:#333333;}#my-svg svg{font-family:"trebuchet ms",verdana,arial,sans-serif;font-size:16px;}#my-svg p{margin:0;}#my-svg g.classGroup text{fill:#9370DB;stroke:none;font-family:"trebuchet ms",verdana,arial,sans-serif;font-size:10px;}#my-svg g.classGroup text .title{font-weight:bolder;}#my-svg .nodeLabel,#my-svg .edgeLabel{color:#131300;}#my-svg .edgeLabel .label rect{fill:#ECECFF;}#my-svg .label text{fill:#131300;}#my-svg .labelBkg{background:#ECECFF;}#my-svg .edgeLabel .label span{background:#ECECFF;}#my-svg .classTitle{font-weight:bolder;}#my-svg .node rect,#my-svg .node circle,#my-svg .node ellipse,#my-svg .node polygon,#my-svg .node path{fill:#ECECFF;stroke:#9370DB;stroke-width:1px;}#my-svg .divider{stroke:#9370DB;stroke-width:1;}#my-svg g.clickable{cursor:pointer;}#my-svg g.classGroup rect{fill:#ECECFF;stroke:#9370DB;}#my-svg g.classGroup line{stroke:#9370DB;stroke-width:1;}#my-svg .classLabel .box{stroke:none;stroke-width:0;fill:#ECECFF;opacity:0.5;}#my-svg .classLabel .label{fill:#9370DB;font-size:10px;}#my-svg .relation{stroke:#333333;stroke-width:1;fill:none;}#my-svg .dashed-line{stroke-dasharray:3;}#my-svg .dotted-line{stroke-dasharray:1 2;}#my-svg #compositionStart,#my-svg .composition{fill:#333333!important;stroke:#333333!important;stroke-width:1;}#my-svg #compositionEnd,#my-svg .composition{fill:#333333!important;stroke:#333333!important;stroke-width:1;}#my-svg #dependencyStart,#my-svg .dependency{fill:#333333!important;stroke:#333333!important;stroke-width:1;}#my-svg #dependencyStart,#my-svg .dependency{fill:#333333!important;stroke:#333333!important;stroke-width:1;}#my-svg #extensionStart,#my-svg .extension{fill:transparent!important;stroke:#333333!important;stroke-width:1;}#my-svg #extensionEnd,#my-svg .extension{fill:transparent!important;stroke:#333333!important;stroke-width:1;}#my-svg #aggregationStart,#my-svg .aggregation{fill:transparent!important;stroke:#333333!important;stroke-width:1;}#my-svg #aggregationEnd,#my-svg .aggregation{fill:transparent!important;stroke:#333333!important;stroke-width:1;}#my-svg #lollipopStart,#my-svg .lollipop{fill:#ECECFF!important;stroke:#333333!important;stroke-width:1;}#my-svg #lollipopEnd,#my-svg .lollipop{fill:#ECECFF!important;stroke:#333333!important;stroke-width:1;}#my-svg .edgeTerminals{font-size:11px;line-height:initial;}#my-svg .classTitleText{text-anchor:middle;font-size:18px;fill:#333;}#my-svg .label-icon{display:inline-block;height:1em;overflow:visible;vertical-align:-0.125em;}#my-svg .node .label-icon path{fill:currentColor;stroke:revert;stroke-width:revert;}#my-svg :root{--mermaid-font-family:"trebuchet ms",verdana,arial,sans-serif;}</style><g><defs><marker id="my-svg_class-aggregationStart" class="marker aggregation class" refX="18" refY="7" markerWidth="190" markerHeight="240" orient="auto"><path d="M 18,7 L9,13 L1,7 L9,1 Z"/></marker></defs><defs><marker id="my-svg_class-aggregationEnd" class="marker aggregation class" refX="1" refY="7" markerWidth="20" markerHeight="28" orient="auto"><path d="M 18,7 L9,13 L1,7 L9,1 Z"/></marker></defs><defs><marker id="my-svg_class-extensionStart" class="marker extension class" refX="18" refY="7" markerWidth="190" markerHeight="240" orient="auto"><path d="M 1,7 L18,13 V 1 Z"/></marker></defs><defs><marker id="my-svg_class-extensionEnd" class="marker extension class" refX="1" refY="7" markerWidth="20" markerHeight="28" orient="auto"><path d="M 1,1 V 13 L18,7 Z"/></marker></defs><defs><marker id="my-svg_class-compositionStart" class="marker composition class" refX="18" refY="7" markerWidth="190" markerHeight="240" orient="auto"><path d="M 18,7 L9,13 L1,7 L9,1 Z"/></marker></defs><defs><marker id="my-svg_class-compositionEnd" class="marker composition class" refX="1" refY="7" markerWidth="20" markerHeight="28" orient="auto"><path d="M 18,7 L9,13 L1,7 L9,1 Z"/></marker></defs><defs><marker id="my-svg_class-dependencyStart" class="marker dependency class" refX="6" refY="7" markerWidth="190" markerHeight="240" orient="auto"><path d="M 5,7 L9,13 L1,7 L9,1 Z"/></marker></defs><defs><marker id="my-svg_class-dependencyEnd" class="marker dependency class" refX="13" refY="7" markerWidth="20" markerHeight="28" orient="auto"><path d="M 18,7 L9,13 L14,7 L9,1 Z"/></marker></defs><defs><marker id="my-svg_class-lollipopStart" class="marker lollipop class" refX="13" refY="7" markerWidth="190" markerHeight="240" orient="auto"><circle stroke="black" fill="transparent" cx="7" cy="7" r="6"/></marker></defs><defs><marker id="my-svg_class-lollipopEnd" class="marker lollipop class" refX="1" refY="7" markerWidth="190" markerHeight="240" orient="auto"><circle stroke="black" fill="transparent" cx="7" cy="7" r="6"/></marker></defs><g class="root"><g class="clusters"/><g class="edgePaths"><path d="M161.715,176L161.715,182.167C161.715,188.333,161.715,200.667,163.539,212.056C165.363,223.445,169.011,233.89,170.835,239.113L172.659,244.336" id="id_PipelineCatalog_PipelineDefinition_1" class="edge-thickness-normal edge-pattern-solid relation" style=";;;" data-edge="true" data-et="edge" data-id="id_PipelineCatalog_PipelineDefinition_1" data-points="W3sieCI6MTYxLjcxNDg0Mzc1LCJ5IjoxNzZ9LHsieCI6MTYxLjcxNDg0Mzc1LCJ5IjoyMTN9LHsieCI6MTc0LjYzNzg0ODY1NzAyNDgsInkiOjI1MH1d" marker-end="url(#my-svg_class-dependencyEnd)"/><path d="M203.977,418L203.977,424.167C203.977,430.333,203.977,442.667,203.977,454C203.977,465.333,203.977,475.667,203.977,480.833L203.977,486" id="id_PipelineDefinition_StageDefinition_2" class="edge-thickness-normal edge-pattern-solid relation" style=";;;" data-edge="true" data-et="edge" data-id="id_PipelineDefinition_StageDefinition_2" data-points="W3sieCI6MjAzLjk3NjU2MjUsInkiOjQxOH0seyJ4IjoyMDMuOTc2NTYyNSwieSI6NDU1fSx7IngiOjIwMy45NzY1NjI1LCJ5Ijo0OTJ9XQ==" marker-end="url(#my-svg_class-dependencyEnd)"/><path d="M439.06,176L431.145,182.167C423.231,188.333,407.401,200.667,390.767,212.458C374.132,224.249,356.691,235.499,347.971,241.123L339.25,246.748" id="id_GraphRunner_PipelineDefinition_3" class="edge-thickness-normal edge-pattern-solid relation" style=";;;" data-edge="true" data-et="edge" data-id="id_GraphRunner_PipelineDefinition_3" data-points="W3sieCI6NDM5LjA1OTczOTc5ODU1MzcsInkiOjE3Nn0seyJ4IjozOTEuNTcyMjY1NjI1LCJ5IjoyMTN9LHsieCI6MzM0LjIwODI5MDI4OTI1NjIsInkiOjI1MH1d" marker-end="url(#my-svg_class-dependencyEnd)"/><path d="M577.77,176L580.038,182.167C582.307,188.333,586.844,200.667,589.112,213.5C591.381,226.333,591.381,239.667,591.381,246.333L591.381,253" id="id_GraphRunner_ToolRegistry_4" class="edge-thickness-normal edge-pattern-solid relation" style=";;;" data-edge="true" data-et="edge" data-id="id_GraphRunner_ToolRegistry_4" data-points="W3sieCI6NTc3Ljc2OTgzNzkzOTA0OTYsInkiOjE3Nn0seyJ4Ijo1OTEuMzgwODU5Mzc1LCJ5IjoyMTN9LHsieCI6NTkxLjM4MDg1OTM3NSwieSI6MjU5fV0=" marker-end="url(#my-svg_class-dependencyEnd)"/><path d="M203.977,684L203.977,690.167C203.977,696.333,203.977,708.667,203.977,720C203.977,731.333,203.977,741.667,203.977,746.833L203.977,752" id="id_StageDefinition_RetryPolicy_5" class="edge-thickness-normal edge-pattern-solid relation" style=";;;" data-edge="true" data-et="edge" data-id="id_StageDefinition_RetryPolicy_5" data-points="W3sieCI6MjAzLjk3NjU2MjUsInkiOjY4NH0seyJ4IjoyMDMuOTc2NTYyNSwieSI6NzIxfSx7IngiOjIwMy45NzY1NjI1LCJ5Ijo3NTh9XQ==" marker-end="url(#my-svg_class-dependencyEnd)"/></g><g class="edgeLabels"><g class="edgeLabel" transform="translate(161.71484375, 213)"><g class="label" data-id="id_PipelineCatalog_PipelineDefinition_1" transform="translate(-28.6328125, -12)"><foreignObject width="57.265625" height="24"><div xmlns="http://www.w3.org/1999/xhtml" class="labelBkg" style="display: table-cell; white-space: nowrap; line-height: 1.5; max-width: 200px; text-align: center;"><span class="edgeLabel"><p>returns</p></span></div></foreignObject></g></g><g class="edgeLabel" transform="translate(203.9765625, 455)"><g class="label" data-id="id_PipelineDefinition_StageDefinition_2" transform="translate(-45.3046875, -12)"><foreignObject width="90.609375" height="24"><div xmlns="http://www.w3.org/1999/xhtml" class="labelBkg" style="display: table-cell; white-space: nowrap; line-height: 1.5; max-width: 200px; text-align: center;"><span class="edgeLabel"><p>aggregates</p></span></div></foreignObject></g></g><g class="edgeLabel" transform="translate(388.18509, 215.18474)"><g class="label" data-id="id_GraphRunner_PipelineDefinition_3" transform="translate(-35.890625, -12)"><foreignObject width="71.78125" height="24"><div xmlns="http://www.w3.org/1999/xhtml" class="labelBkg" style="display: table-cell; white-space: nowrap; line-height: 1.5; max-width: 200px; text-align: center;"><span class="edgeLabel"><p>executes</p></span></div></foreignObject></g></g><g class="edgeLabel" transform="translate(591.380859375, 213)"><g class="label" data-id="id_GraphRunner_ToolRegistry_4" transform="translate(-33.1328125, -12)"><foreignObject width="66.265625" height="24"><div xmlns="http://www.w3.org/1999/xhtml" class="labelBkg" style="display: table-cell; white-space: nowrap; line-height: 1.5; max-width: 200px; text-align: center;"><span class="edgeLabel"><p>consults</p></span></div></foreignObject></g></g><g class="edgeLabel" transform="translate(203.9765625, 721)"><g class="label" data-id="id_StageDefinition_RetryPolicy_5" transform="translate(-41.7578125, -12)"><foreignObject width="83.515625" height="24"><div xmlns="http://www.w3.org/1999/xhtml" class="labelBkg" style="display: table-cell; white-space: nowrap; line-height: 1.5; max-width: 200px; text-align: center;"><span class="edgeLabel"><p>configures</p></span></div></foreignObject></g></g></g><g class="nodes"><g class="node default" id="classId-PipelineCatalog-0" transform="translate(161.71484375, 92)"><g class="basic label-container"><path d="M-153.71484375 -84 L153.71484375 -84 L153.71484375 84 L-153.71484375 84" stroke="none" stroke-width="0" fill="#ECECFF" style=""/><path d="M-153.71484375 -84 C-67.8674610767491 -84, 17.97992159650181 -84, 153.71484375 -84 M-153.71484375 -84 C-46.42790538776826 -84, 60.859032974463474 -84, 153.71484375 -84 M153.71484375 -84 C153.71484375 -17.56916272630086, 153.71484375 48.86167454739828, 153.71484375 84 M153.71484375 -84 C153.71484375 -16.988427838076205, 153.71484375 50.02314432384759, 153.71484375 84 M153.71484375 84 C88.2322502650192 84, 22.749656780038407 84, -153.71484375 84 M153.71484375 84 C77.31800599976229 84, 0.9211682495245839 84, -153.71484375 84 M-153.71484375 84 C-153.71484375 35.488186285754686, -153.71484375 -13.023627428490627, -153.71484375 -84 M-153.71484375 84 C-153.71484375 22.51275389562406, -153.71484375 -38.97449220875188, -153.71484375 -84" stroke="#9370DB" stroke-width="1.3" fill="none" stroke-dasharray="0 0" style=""/></g><g class="annotation-group text" transform="translate(0, -60)"/><g class="label-group text" transform="translate(-70.8203125, -60)"><g class="label" style="font-weight: bolder" transform="translate(0,-12)"><foreignObject width="141.640625" height="24"><div xmlns="http://www.w3.org/1999/xhtml" style="display: table-cell; white-space: nowrap; line-height: 1.5; max-width: 173px; text-align: center;"><span class="nodeLabel markdown-node-label" style=""><p>PipelineCatalog</p></span></div></foreignObject></g></g><g class="members-group text" transform="translate(-141.71484375, -12)"><g class="label" style="" transform="translate(0,-12)"><foreignObject width="133.671875" height="24"><div xmlns="http://www.w3.org/1999/xhtml" style="display: table-cell; white-space: nowrap; line-height: 1.5; max-width: 187px; text-align: center;"><span class="nodeLabel markdown-node-label" style=""><p>-definitions: Map</p></span></div></foreignObject></g></g><g class="methods-group text" transform="translate(-141.71484375, 36)"><g class="label" style="" transform="translate(0,-12)"><foreignObject width="212.609375" height="24"><div xmlns="http://www.w3.org/1999/xhtml" style="display: table-cell; white-space: nowrap; line-height: 1.5; max-width: 265px; text-align: center;"><span class="nodeLabel markdown-node-label" style=""><p>+getDefinition(agentType)</p></span></div></foreignObject></g><g class="label" style="" transform="translate(0,12)"><foreignObject width="182.3125" height="24"><div xmlns="http://www.w3.org/1999/xhtml" style="display: table-cell; white-space: nowrap; line-height: 1.5; max-width: 233px; text-align: center;"><span class="nodeLabel markdown-node-label" style=""><p>+listStages(pipelineId)</p></span></div></foreignObject></g></g><g class="divider" style=""><path d="M-153.71484375 -36 C-58.281854401265036 -36, 37.15113494746993 -36, 153.71484375 -36 M-153.71484375 -36 C-70.4416036007614 -36, 12.831636548477206 -36, 153.71484375 -36" stroke="#9370DB" stroke-width="1.3" fill="none" stroke-dasharray="0 0" style=""/></g><g class="divider" style=""><path d="M-153.71484375 12 C-66.50995467155731 12, 20.69493440688538 12, 153.71484375 12 M-153.71484375 12 C-56.85563049433664 12, 40.003582761326726 12, 153.71484375 12" stroke="#9370DB" stroke-width="1.3" fill="none" stroke-dasharray="0 0" style=""/></g></g><g class="node default" id="classId-PipelineDefinition-1" transform="translate(203.9765625, 334)"><g class="basic label-container"><path d="M-140.93359375 -84 L140.93359375 -84 L140.93359375 84 L-140.93359375 84" stroke="none" stroke-width="0" fill="#ECECFF" style=""/><path d="M-140.93359375 -84 C-54.74841575838474 -84, 31.436762233230525 -84, 140.93359375 -84 M-140.93359375 -84 C-68.15635845520961 -84, 4.620876839580774 -84, 140.93359375 -84 M140.93359375 -84 C140.93359375 -38.27025164835693, 140.93359375 7.459496703286135, 140.93359375 84 M140.93359375 -84 C140.93359375 -43.38230023189252, 140.93359375 -2.764600463785044, 140.93359375 84 M140.93359375 84 C75.59000599694988 84, 10.246418243899768 84, -140.93359375 84 M140.93359375 84 C31.339660701974182 84, -78.25427234605164 84, -140.93359375 84 M-140.93359375 84 C-140.93359375 25.233256415210356, -140.93359375 -33.53348716957929, -140.93359375 -84 M-140.93359375 84 C-140.93359375 30.594360633345204, -140.93359375 -22.811278733309592, -140.93359375 -84" stroke="#9370DB" stroke-width="1.3" fill="none" stroke-dasharray="0 0" style=""/></g><g class="annotation-group text" transform="translate(0, -60)"/><g class="label-group text" transform="translate(-80.5546875, -60)"><g class="label" style="font-weight: bolder" transform="translate(0,-12)"><foreignObject width="161.109375" height="24"><div xmlns="http://www.w3.org/1999/xhtml" style="display: table-cell; white-space: nowrap; line-height: 1.5; max-width: 188px; text-align: center;"><span class="nodeLabel markdown-node-label" style=""><p>PipelineDefinition</p></span></div></foreignObject></g></g><g class="members-group text" transform="translate(-128.93359375, -12)"><g class="label" style="" transform="translate(0,-12)"><foreignObject width="142.703125" height="24"><div xmlns="http://www.w3.org/1999/xhtml" style="display: table-cell; white-space: nowrap; line-height: 1.5; max-width: 196px; text-align: center;"><span class="nodeLabel markdown-node-label" style=""><p>+pipelineId: UUID</p></span></div></foreignObject></g><g class="label" style="" transform="translate(0,12)"><foreignObject width="177.3125" height="24"><div xmlns="http://www.w3.org/1999/xhtml" style="display: table-cell; white-space: nowrap; line-height: 1.5; max-width: 231px; text-align: center;"><span class="nodeLabel markdown-node-label" style=""><p>+graphVersion: String</p></span></div></foreignObject></g><g class="label" style="" transform="translate(0,36)"><foreignObject width="104.609375" height="24"><div xmlns="http://www.w3.org/1999/xhtml" style="display: table-cell; white-space: nowrap; line-height: 1.5; max-width: 157px; text-align: center;"><span class="nodeLabel markdown-node-label" style=""><p>+stages: List</p></span></div></foreignObject></g></g><g class="methods-group text" transform="translate(-128.93359375, 84)"/><g class="divider" style=""><path d="M-140.93359375 -36 C-70.01304932793789 -36, 0.907495094124215 -36, 140.93359375 -36 M-140.93359375 -36 C-41.41939274023973 -36, 58.09480826952054 -36, 140.93359375 -36" stroke="#9370DB" stroke-width="1.3" fill="none" stroke-dasharray="0 0" style=""/></g><g class="divider" style=""><path d="M-140.93359375 60 C-50.90040510682468 60, 39.132783536350644 60, 140.93359375 60 M-140.93359375 60 C-32.498357416208464 60, 75.93687891758307 60, 140.93359375 60" stroke="#9370DB" stroke-width="1.3" fill="none" stroke-dasharray="0 0" style=""/></g></g><g class="node default" id="classId-StageDefinition-2" transform="translate(203.9765625, 588)"><g class="basic label-container"><path d="M-145.0234375 -96 L145.0234375 -96 L145.0234375 96 L-145.0234375 96" stroke="none" stroke-width="0" fill="#ECECFF" style=""/><path d="M-145.0234375 -96 C-48.293883158631985 -96, 48.43567118273603 -96, 145.0234375 -96 M-145.0234375 -96 C-76.85866548439506 -96, -8.693893468790122 -96, 145.0234375 -96 M145.0234375 -96 C145.0234375 -44.65594119211586, 145.0234375 6.688117615768277, 145.0234375 96 M145.0234375 -96 C145.0234375 -35.17583043234497, 145.0234375 25.648339135310053, 145.0234375 96 M145.0234375 96 C67.64052144900333 96, -9.74239460199334 96, -145.0234375 96 M145.0234375 96 C37.708170665425996 96, -69.60709616914801 96, -145.0234375 96 M-145.0234375 96 C-145.0234375 22.596946301240777, -145.0234375 -50.806107397518446, -145.0234375 -96 M-145.0234375 96 C-145.0234375 19.538087016310158, -145.0234375 -56.923825967379685, -145.0234375 -96" stroke="#9370DB" stroke-width="1.3" fill="none" stroke-dasharray="0 0" style=""/></g><g class="annotation-group text" transform="translate(0, -72)"/><g class="label-group text" transform="translate(-70.328125, -72)"><g class="label" style="font-weight: bolder" transform="translate(0,-12)"><foreignObject width="140.65625" height="24"><div xmlns="http://www.w3.org/1999/xhtml" style="display: table-cell; white-space: nowrap; line-height: 1.5; max-width: 172px; text-align: center;"><span class="nodeLabel markdown-node-label" style=""><p>StageDefinition</p></span></div></foreignObject></g></g><g class="members-group text" transform="translate(-133.0234375, -24)"><g class="label" style="" transform="translate(0,-12)"><foreignObject width="130.921875" height="24"><div xmlns="http://www.w3.org/1999/xhtml" style="display: table-cell; white-space: nowrap; line-height: 1.5; max-width: 184px; text-align: center;"><span class="nodeLabel markdown-node-label" style=""><p>+stageId: String</p></span></div></foreignObject></g><g class="label" style="" transform="translate(0,12)"><foreignObject width="126.4375" height="24"><div xmlns="http://www.w3.org/1999/xhtml" style="display: table-cell; white-space: nowrap; line-height: 1.5; max-width: 180px; text-align: center;"><span class="nodeLabel markdown-node-label" style=""><p>+nodeId: String</p></span></div></foreignObject></g><g class="label" style="" transform="translate(0,36)"><foreignObject width="105.359375" height="24"><div xmlns="http://www.w3.org/1999/xhtml" style="display: table-cell; white-space: nowrap; line-height: 1.5; max-width: 158px; text-align: center;"><span class="nodeLabel markdown-node-label" style=""><p>+toolIds: List</p></span></div></foreignObject></g><g class="label" style="" transform="translate(0,60)"><foreignObject width="195.71875" height="24"><div xmlns="http://www.w3.org/1999/xhtml" style="display: table-cell; white-space: nowrap; line-height: 1.5; max-width: 248px; text-align: center;"><span class="nodeLabel markdown-node-label" style=""><p>+retryPolicy: RetryPolicy</p></span></div></foreignObject></g></g><g class="methods-group text" transform="translate(-133.0234375, 96)"/><g class="divider" style=""><path d="M-145.0234375 -48 C-35.83626387031404 -48, 73.35090975937192 -48, 145.0234375 -48 M-145.0234375 -48 C-37.37555387362005 -48, 70.2723297527599 -48, 145.0234375 -48" stroke="#9370DB" stroke-width="1.3" fill="none" stroke-dasharray="0 0" style=""/></g><g class="divider" style=""><path d="M-145.0234375 72 C-56.67359967032989 72, 31.676238159340215 72, 145.0234375 72 M-145.0234375 72 C-63.99367701096887 72, 17.036083478062267 72, 145.0234375 72" stroke="#9370DB" stroke-width="1.3" fill="none" stroke-dasharray="0 0" style=""/></g></g><g class="node default" id="classId-GraphRunner-3" transform="translate(546.869140625, 92)"><g class="basic label-container"><path d="M-171.4765625 -84 L171.4765625 -84 L171.4765625 84 L-171.4765625 84" stroke="none" stroke-width="0" fill="#ECECFF" style=""/><path d="M-171.4765625 -84 C-99.84427301420031 -84, -28.211983528400623 -84, 171.4765625 -84 M-171.4765625 -84 C-74.0134852719756 -84, 23.449591956048806 -84, 171.4765625 -84 M171.4765625 -84 C171.4765625 -41.49010935744943, 171.4765625 1.0197812851011463, 171.4765625 84 M171.4765625 -84 C171.4765625 -47.734367212622786, 171.4765625 -11.468734425245572, 171.4765625 84 M171.4765625 84 C43.62743874609198 84, -84.22168500781603 84, -171.4765625 84 M171.4765625 84 C69.2252183126419 84, -33.0261258747162 84, -171.4765625 84 M-171.4765625 84 C-171.4765625 38.1694027592042, -171.4765625 -7.661194481591593, -171.4765625 -84 M-171.4765625 84 C-171.4765625 40.15951018152468, -171.4765625 -3.6809796369506387, -171.4765625 -84" stroke="#9370DB" stroke-width="1.3" fill="none" stroke-dasharray="0 0" style=""/></g><g class="annotation-group text" transform="translate(0, -60)"/><g class="label-group text" transform="translate(-59.953125, -60)"><g class="label" style="font-weight: bolder" transform="translate(0,-12)"><foreignObject width="119.90625" height="24"><div xmlns="http://www.w3.org/1999/xhtml" style="display: table-cell; white-space: nowrap; line-height: 1.5; max-width: 156px; text-align: center;"><span class="nodeLabel markdown-node-label" style=""><p>GraphRunner</p></span></div></foreignObject></g></g><g class="members-group text" transform="translate(-159.4765625, -12)"><g class="label" style="" transform="translate(0,-12)"><foreignObject width="207.46875" height="24"><div xmlns="http://www.w3.org/1999/xhtml" style="display: table-cell; white-space: nowrap; line-height: 1.5; max-width: 259px; text-align: center;"><span class="nodeLabel markdown-node-label" style=""><p>-toolRegistry: ToolRegistry</p></span></div></foreignObject></g></g><g class="methods-group text" transform="translate(-159.4765625, 36)"><g class="label" style="" transform="translate(0,-12)"><foreignObject width="198.546875" height="24"><div xmlns="http://www.w3.org/1999/xhtml" style="display: table-cell; white-space: nowrap; line-height: 1.5; max-width: 251px; text-align: center;"><span class="nodeLabel markdown-node-label" style=""><p>+run(definition, context)</p></span></div></foreignObject></g><g class="label" style="" transform="translate(0,12)"><foreignObject width="259" height="24"><div xmlns="http://www.w3.org/1999/xhtml" style="display: table-cell; white-space: nowrap; line-height: 1.5; max-width: 312px; text-align: center;"><span class="nodeLabel markdown-node-label" style=""><p>+resume(definition, checkpoint)</p></span></div></foreignObject></g></g><g class="divider" style=""><path d="M-171.4765625 -36 C-60.904509781814625 -36, 49.66754293637075 -36, 171.4765625 -36 M-171.4765625 -36 C-46.439116595652635 -36, 78.59832930869473 -36, 171.4765625 -36" stroke="#9370DB" stroke-width="1.3" fill="none" stroke-dasharray="0 0" style=""/></g><g class="divider" style=""><path d="M-171.4765625 12 C-92.64272247637116 12, -13.808882452742324 12, 171.4765625 12 M-171.4765625 12 C-57.87053781352073 12, 55.735486872958546 12, 171.4765625 12" stroke="#9370DB" stroke-width="1.3" fill="none" stroke-dasharray="0 0" style=""/></g></g><g class="node default" id="classId-ToolRegistry-4" transform="translate(591.380859375, 334)"><g class="basic label-container"><path d="M-119.66015625 -75 L119.66015625 -75 L119.66015625 75 L-119.66015625 75" stroke="none" stroke-width="0" fill="#ECECFF" style=""/><path d="M-119.66015625 -75 C-34.937908136910465 -75, 49.78433997617907 -75, 119.66015625 -75 M-119.66015625 -75 C-30.25984456920972 -75, 59.14046711158056 -75, 119.66015625 -75 M119.66015625 -75 C119.66015625 -34.001032952586705, 119.66015625 6.99793409482659, 119.66015625 75 M119.66015625 -75 C119.66015625 -44.870231434325376, 119.66015625 -14.740462868650752, 119.66015625 75 M119.66015625 75 C34.03260623360492 75, -51.59494378279015 75, -119.66015625 75 M119.66015625 75 C67.75981333853883 75, 15.859470427077653 75, -119.66015625 75 M-119.66015625 75 C-119.66015625 37.19340342399537, -119.66015625 -0.6131931520092593, -119.66015625 -75 M-119.66015625 75 C-119.66015625 15.436050981082595, -119.66015625 -44.12789803783481, -119.66015625 -75" stroke="#9370DB" stroke-width="1.3" fill="none" stroke-dasharray="0 0" style=""/></g><g class="annotation-group text" transform="translate(0, -51)"/><g class="label-group text" transform="translate(-55.9296875, -51)"><g class="label" style="font-weight: bolder" transform="translate(0,-12)"><foreignObject width="111.859375" height="24"><div xmlns="http://www.w3.org/1999/xhtml" style="display: table-cell; white-space: nowrap; line-height: 1.5; max-width: 146px; text-align: center;"><span class="nodeLabel markdown-node-label" style=""><p>ToolRegistry</p></span></div></foreignObject></g></g><g class="members-group text" transform="translate(-107.66015625, -3)"/><g class="methods-group text" transform="translate(-107.66015625, 27)"><g class="label" style="" transform="translate(0,-12)"><foreignObject width="129.015625" height="24"><div xmlns="http://www.w3.org/1999/xhtml" style="display: table-cell; white-space: nowrap; line-height: 1.5; max-width: 183px; text-align: center;"><span class="nodeLabel markdown-node-label" style=""><p>+resolve(toolId)</p></span></div></foreignObject></g><g class="label" style="" transform="translate(0,12)"><foreignObject width="159.390625" height="24"><div xmlns="http://www.w3.org/1999/xhtml" style="display: table-cell; white-space: nowrap; line-height: 1.5; max-width: 212px; text-align: center;"><span class="nodeLabel markdown-node-label" style=""><p>+validate(toolSpec)</p></span></div></foreignObject></g></g><g class="divider" style=""><path d="M-119.66015625 -27 C-37.527070708259686 -27, 44.60601483348063 -27, 119.66015625 -27 M-119.66015625 -27 C-42.464402242878805 -27, 34.73135176424239 -27, 119.66015625 -27" stroke="#9370DB" stroke-width="1.3" fill="none" stroke-dasharray="0 0" style=""/></g><g class="divider" style=""><path d="M-119.66015625 -3 C-30.972190486804777 -3, 57.715775276390445 -3, 119.66015625 -3 M-119.66015625 -3 C-57.941914736427975 -3, 3.7763267771440496 -3, 119.66015625 -3" stroke="#9370DB" stroke-width="1.3" fill="none" stroke-dasharray="0 0" style=""/></g></g><g class="node default" id="classId-RetryPolicy-5" transform="translate(203.9765625, 830)"><g class="basic label-container"><path d="M-114.328125 -72 L114.328125 -72 L114.328125 72 L-114.328125 72" stroke="none" stroke-width="0" fill="#ECECFF" style=""/><path d="M-114.328125 -72 C-33.88292390245661 -72, 46.56227719508678 -72, 114.328125 -72 M-114.328125 -72 C-43.09537833990707 -72, 28.137368320185857 -72, 114.328125 -72 M114.328125 -72 C114.328125 -18.778597852061722, 114.328125 34.442804295876556, 114.328125 72 M114.328125 -72 C114.328125 -36.457982715949996, 114.328125 -0.9159654318999912, 114.328125 72 M114.328125 72 C34.65800452177483 72, -45.012115956450344 72, -114.328125 72 M114.328125 72 C23.15137251808767 72, -68.02537996382466 72, -114.328125 72 M-114.328125 72 C-114.328125 42.347528777848275, -114.328125 12.69505755569655, -114.328125 -72 M-114.328125 72 C-114.328125 23.737561090629598, -114.328125 -24.524877818740805, -114.328125 -72" stroke="#9370DB" stroke-width="1.3" fill="none" stroke-dasharray="0 0" style=""/></g><g class="annotation-group text" transform="translate(0, -48)"/><g class="label-group text" transform="translate(-51.375, -48)"><g class="label" style="font-weight: bolder" transform="translate(0,-12)"><foreignObject width="102.75" height="24"><div xmlns="http://www.w3.org/1999/xhtml" style="display: table-cell; white-space: nowrap; line-height: 1.5; max-width: 137px; text-align: center;"><span class="nodeLabel markdown-node-label" style=""><p>RetryPolicy</p></span></div></foreignObject></g></g><g class="members-group text" transform="translate(-102.328125, 0)"><g class="label" style="" transform="translate(0,-12)"><foreignObject width="153.28125" height="24"><div xmlns="http://www.w3.org/1999/xhtml" style="display: table-cell; white-space: nowrap; line-height: 1.5; max-width: 207px; text-align: center;"><span class="nodeLabel markdown-node-label" style=""><p>+maxAttempts: Int</p></span></div></foreignObject></g><g class="label" style="" transform="translate(0,12)"><foreignObject width="151.640625" height="24"><div xmlns="http://www.w3.org/1999/xhtml" style="display: table-cell; white-space: nowrap; line-height: 1.5; max-width: 205px; text-align: center;"><span class="nodeLabel markdown-node-label" style=""><p>+backoff: Duration</p></span></div></foreignObject></g></g><g class="methods-group text" transform="translate(-102.328125, 72)"/><g class="divider" style=""><path d="M-114.328125 -24 C-55.789141148366674 -24, 2.7498427032666513 -24, 114.328125 -24 M-114.328125 -24 C-67.84146137943469 -24, -21.354797758869395 -24, 114.328125 -24" stroke="#9370DB" stroke-width="1.3" fill="none" stroke-dasharray="0 0" style=""/></g><g class="divider" style=""><path d="M-114.328125 48 C-32.52410272197491 48, 49.279919556050174 48, 114.328125 48 M-114.328125 48 C-49.01320249920782 48, 16.301720001584357 48, 114.328125 48" stroke="#9370DB" stroke-width="1.3" fill="none" stroke-dasharray="0 0" style=""/></g></g></g></g></g></svg>