<svg id="my-svg" width="100%" xmlns="http://www.w3.org/2000/svg" xmlns:xlink="http://www.w3.org/1999/xlink" class="classDiagram" style="max-width: 1533.76px; background-color: white;" viewBox="0 0 1533.7578125 828" role="graphics-document document" aria-roledescription="class"><style>#my-svg{font-family:"DejaVu Sans","Trebuchet MS",Arial,sans-serif;font-size:16px;fill:#333;}@keyframes edge-animation-frame{from{stroke-dashoffset:0;}}@keyframes dash{to{stroke-dashoffset:0;}}#my-svg .edge-animation-slow{stroke-dasharray:9,5!important;stroke-dashoffset:900;animation:dash 50s linear infinite;stroke-linecap:round;}#my-svg .edge-animation-fast{stroke-dasharray:9,5!important;stroke-dashoffset:900;animation:dash 20s linear infinite;stroke-linecap:round;}#my-svg .error-icon{fill:#552222;}#my-svg .error-text{fill:#552222;stroke:#552222;}#my-svg .edge-thickness-normal{stroke-width:1px;}#my-svg .edge-thickness-thick{stroke-width:3.5px;}#my-svg .edge-pattern-solid{stroke-dasharray:0;}#my-svg .edge-thickness-invisible{stroke-width:0;fill:none;}#my-svg .edge-pattern-dashed{stroke-dasharray:3;}#my-svg .edge-pattern-dotted{stroke-dasharray:2;}#my-svg .marker{fill:#333333;stroke:#333333;}#my-svg .marker.cross{stroke:#333333;}#my-svg svg{font-family:"DejaVu Sans","Trebuchet MS",Arial,sans-serif;font-size:16px;}#my-svg p{margin:0;}#my-svg g.classGroup text{fill:#9370DB;stroke:none;font-family:"DejaVu Sans","Trebuchet MS",Arial,sans-serif;font-size:10px;}#my-svg g.classGroup text .title{font-weight:bolder;}#my-svg .nodeLabel,#my-svg .edgeLabel{color:#131300;}#my-svg .edgeLabel .label rect{fill:#ECECFF;}#my-svg .label text{fill:#131300;}#my-svg .labelBkg{background:#ECECFF;}#my-svg .edgeLabel .label span{background:#ECECFF;}#my-svg .classTitle{font-weight:bolder;}#my-svg .node rect,#my-svg .node circle,#my-svg .node ellipse,#my-svg .node polygon,#my-svg .node path{fill:#ECECFF;stroke:#9370DB;stroke-width:1px;}#my-svg .divider{stroke:#9370DB;stroke-width:1;}#my-svg g.clickable{cursor:pointer;}#my-svg g.classGroup rect{fill:#ECECFF;stroke:#9370DB;}#my-svg g.classGroup line{stroke:#9370DB;stroke-width:1;}#my-svg .classLabel .box{stroke:none;stroke-width:0;fill:#ECECFF;opacity:0.5;}#my-svg .classLabel .label{fill:#9370DB;font-size:10px;}#my-svg .relation{stroke:#333333;stroke-width:1;fill:none;}#my-svg .dashed-line{stroke-dasharray:3;}#my-svg .dotted-line{stroke-dasharray:1 2;}#my-svg #compositionStart,#my-svg .composition{fill:#333333!important;stroke:#333333!important;stroke-width:1;}#my-svg #compositionEnd,#my-svg .composition{fill:#333333!important;stroke:#333333!important;stroke-width:1;}#my-svg #dependencyStart,#my-svg .dependency{fill:#333333!important;stroke:#333333!important;stroke-width:1;}#my-svg #dependencyStart,#my-svg .dependency{fill:#333333!important;stroke:#333333!important;stroke-width:1;}#my-svg #extensionStart,#my-svg .extension{fill:transparent!important;stroke:#333333!important;stroke-width:1;}#my-svg #extensionEnd,#my-svg .extension{fill:transparent!important;stroke:#333333!important;stroke-width:1;}#my-svg #aggregationStart,#my-svg .aggregation{fill:transparent!important;stroke:#333333!important;stroke-width:1;}#my-svg #aggregationEnd,#my-svg .aggregation{fill:transparent!important;stroke:#333333!important;stroke-width:1;}#my-svg #lollipopStart,#my-svg .lollipop{fill:#ECECFF!important;stroke:#333333!important;stroke-width:1;}#my-svg #lollipopEnd,#my-svg .lollipop{fill:#ECECFF!important;stroke:#333333!important;stroke-width:1;}#my-svg .edgeTerminals{font-size:11px;line-height:initial;}#my-svg .classTitleText{text-anchor:middle;font-size:18px;fill:#333;}#my-svg .label-icon{display:inline-block;height:1em;overflow:visible;vertical-align:-0.125em;}#my-svg .node .label-icon path{fill:currentColor;stroke:revert;stroke-width:revert;}#my-svg :root{--mermaid-font-family:"trebuchet ms",verdana,arial,sans-serif;}</style><g><defs><marker id="my-svg_class-aggregationStart" class="marker aggregation class" refX="18" refY="7" markerWidth="190" markerHeight="240" orient="auto"><path d="M 18,7 L9,13 L1,7 L9,1 Z"/></marker></defs><defs><marker id="my-svg_class-aggregationEnd" class="marker aggregation class" refX="1" refY="7" markerWidth="20" markerHeight="28" orient="auto"><path d="M 18,7 L9,13 L1,7 L9,1 Z"/></marker></defs><defs><marker id="my-svg_class-extensionStart" class="marker extension class" refX="18" refY="7" markerWidth="190" markerHeight="240" orient="auto"><path d="M 1,7 L18,13 V 1 Z"/></marker></defs><defs><marker id="my-svg_class-extensionEnd" class="marker extension class" refX="1" refY="7" markerWidth="20" markerHeight="28" orient="auto"><path d="M 1,1 V 13 L18,7 Z"/></marker></defs><defs><marker id="my-svg_class-compositionStart" class="marker composition class" refX="18" refY="7" markerWidth="190" markerHeight="240" orient="auto"><path d="M 18,7 L9,13 L1,7 L9,1 Z"/></marker></defs><defs><marker id="my-svg_class-compositionEnd" class="marker composition class" refX="1" refY="7" markerWidth="20" markerHeight="28" orient="auto"><path d="M 18,7 L9,13 L1,7 L9,1 Z"/></marker></defs><defs><marker id="my-svg_class-dependencyStart" class="marker dependency class" refX="6" refY="7" markerWidth="190" markerHeight="240" orient="auto"><path d="M 5,7 L9,13 L1,7 L9,1 Z"/></marker></defs><defs><marker id="my-svg_class-dependencyEnd" class="marker dependency class" refX="13" refY="7" markerWidth="20" markerHeight="28" orient="auto"><path d="M 18,7 L9,13 L14,7 L9,1 Z"/></marker></defs><defs><marker id="my-svg_class-lollipopStart" class="marker lollipop class" refX="13" refY="7" markerWidth="190" markerHeight="240" orient="auto"><circle stroke="black" fill="transparent" cx="7" cy="7" r="6"/></marker></defs><defs><marker id="my-svg_class-lollipopEnd" class="marker lollipop class" refX="1" refY="7" markerWidth="190" markerHeight="240" orient="auto"><circle stroke="black" fill="transparent" cx="7" cy="7" r="6"/></marker></defs><g class="root"><g class="clusters"/><g class="edgePaths"><path d="M445.805,204.336L402.079,219.696C358.354,235.057,270.904,265.779,227.178,288.723C183.453,311.667,183.453,326.833,183.453,334.417L183.453,342" id="id_GuardianService_GuardianRequest_1" class="edge-thickness-normal edge-pattern-solid relation" style=";;;" data-edge="true" data-et="edge" data-id="id_GuardianService_GuardianRequest_1" data-points="W3sieCI6NDQ1LjgwNDY4NzUsInkiOjIwNC4zMzU2NTcwNDI0ODU0NX0seyJ4IjoxODMuNDUzMTI1LCJ5IjoyOTYuNX0seyJ4IjoxODMuNDUzMTI1LCJ5IjozNDh9XQ==" marker-end="url(#my-svg_class-dependencyEnd)"/><path d="M846.234,177.636L937.133,197.446C1028.031,217.257,1209.828,256.879,1300.727,281.773C1391.625,306.667,1391.625,316.833,1391.625,321.917L1391.625,327" id="id_GuardianService_DetectorPipeline_2" class="edge-thickness-normal edge-pattern-solid relation" style=";;;" data-edge="true" data-et="edge" data-id="id_GuardianService_DetectorPipeline_2" data-points="W3sieCI6ODQ2LjIzNDM3NSwieSI6MTc3LjYzNTU1OTkyMTQxNDU0fSx7IngiOjEzOTEuNjI1LCJ5IjoyOTYuNX0seyJ4IjoxMzkxLjYyNSwieSI6MzMzfV0=" marker-end="url(#my-svg_class-dependencyEnd)"/><path d="M646.02,260L646.02,266.083C646.02,272.167,646.02,284.333,646.02,301.5C646.02,318.667,646.02,340.833,646.02,351.917L646.02,363" id="id_GuardianService_PolicyClient_3" class="edge-thickness-normal edge-pattern-solid relation" style=";;;" data-edge="true" data-et="edge" data-id="id_GuardianService_PolicyClient_3" data-points="W3sieCI6NjQ2LjAxOTUzMTI1LCJ5IjoyNjB9LHsieCI6NjQ2LjAxOTUzMTI1LCJ5IjoyOTYuNX0seyJ4Ijo2NDYuMDE5NTMxMjUsInkiOjM2OX1d" marker-end="url(#my-svg_class-dependencyEnd)"/><path d="M846.234,219.363L876.388,232.219C906.542,245.075,966.849,270.788,997.003,294.727C1027.156,318.667,1027.156,340.833,1027.156,351.917L1027.156,363" id="id_GuardianService_VaultClient_4" class="edge-thickness-normal edge-pattern-solid relation" style=";;;" data-edge="true" data-et="edge" data-id="id_GuardianService_VaultClient_4" data-points="W3sieCI6ODQ2LjIzNDM3NSwieSI6MjE5LjM2MjgzODM0MzM2MDI0fSx7IngiOjEwMjcuMTU2MjUsInkiOjI5Ni41fSx7IngiOjEwMjcuMTU2MjUsInkiOjM2OX1d" marker-end="url(#my-svg_class-dependencyEnd)"/><path d="M476.244,260L468.047,266.083C459.85,272.167,443.456,284.333,435.259,315C427.063,345.667,427.063,394.833,427.063,444C427.063,493.167,427.063,542.333,480.003,581.461C532.943,620.589,638.823,649.678,691.763,664.223L744.703,678.767" id="id_GuardianService_GuardianJudgmentRecord_5" class="edge-thickness-normal edge-pattern-solid relation" style=";;;" data-edge="true" data-et="edge" data-id="id_GuardianService_GuardianJudgmentRecord_5" data-points="W3sieCI6NDc2LjI0MzYxNzc4ODQ2MTUsInkiOjI2MH0seyJ4Ijo0MjcuMDYyNSwieSI6Mjk2LjV9LHsieCI6NDI3LjA2MjUsInkiOjQ0NH0seyJ4Ijo0MjcuMDYyNSwieSI6NTkxLjV9LHsieCI6NzUwLjQ4ODI4MTI1LCJ5Ijo2ODAuMzU2NjkxMDE5MjQ0NX1d" marker-end="url(#my-svg_class-dependencyEnd)"/><path d="M1391.625,555L1391.625,561.083C1391.625,567.167,1391.625,579.333,1338.685,599.961C1285.745,620.589,1179.865,649.678,1126.925,664.223L1073.985,678.767" id="id_DetectorPipeline_GuardianJudgmentRecord_6" class="edge-thickness-normal edge-pattern-solid relation" style=";;;" data-edge="true" data-et="edge" data-id="id_DetectorPipeline_GuardianJudgmentRecord_6" data-points="W3sieCI6MTM5MS42MjUsInkiOjU1NX0seyJ4IjoxMzkxLjYyNSwieSI6NTkxLjV9LHsieCI6MTA2OC4xOTkyMTg3NSwieSI6NjgwLjM1NjY5MTAxOTI0NDV9XQ==" marker-end="url(#my-svg_class-dependencyEnd)"/></g><g class="edgeLabels"><g class="edgeLabel" transform="translate(183.453125, 296.5)"><g class="label" data-id="id_GuardianService_GuardianRequest_1" transform="translate(-42.484375, -11.5)"><g><rect class="background" style="" x="-2" y="-1" width="84.96875" height="23"/><text y="-10.1" style=""><tspan class="text-outer-tspan" x="0" y="-0.1em" dy="1.1em"><tspan font-style="normal" class="text-inner-tspan" font-weight="normal">consumes</tspan></tspan></text></g></g></g><g class="edgeLabel" transform="translate(1391.625, 296.5)"><g class="label" data-id="id_GuardianService_DetectorPipeline_2" transform="translate(-52.125, -11.5)"><g><rect class="background" style="" x="-2" y="-1" width="104.25" height="23"/><text y="-10.1" style=""><tspan class="text-outer-tspan" x="0" y="-0.1em" dy="1.1em"><tspan font-style="normal" class="text-inner-tspan" font-weight="normal">orchestrates</tspan></tspan></text></g></g></g><g class="edgeLabel" transform="translate(646.01953125, 296.5)"><g class="label" data-id="id_GuardianService_PolicyClient_3" transform="translate(-31.671875, -11.5)"><g><rect class="background" style="" x="-2" y="-1" width="63.34375" height="23"/><text y="-10.1" style=""><tspan class="text-outer-tspan" x="0" y="-0.1em" dy="1.1em"><tspan font-style="normal" class="text-inner-tspan" font-weight="normal">queries</tspan></tspan></text></g></g></g><g class="edgeLabel" transform="translate(1027.15625, 296.5)"><g class="label" data-id="id_GuardianService_VaultClient_4" transform="translate(-67.0078125, -11.5)"><g><rect class="background" style="" x="-2" y="-1" width="134.015625" height="23"/><text y="-10.1" style=""><tspan class="text-outer-tspan" x="0" y="-0.1em" dy="1.1em"><tspan font-style="normal" class="text-inner-tspan" font-weight="normal">applies</tspan><tspan font-style="normal" class="text-inner-tspan" font-weight="normal"> masking</tspan></tspan></text></g></g></g><g class="edgeLabel" transform="translate(427.0625, 444)"><g class="label" data-id="id_GuardianService_GuardianJudgmentRecord_5" transform="translate(-33.15625, -11.5)"><g><rect class="background" style="" x="-2" y="-1" width="66.3125" height="23"/><text y="-10.1" style=""><tspan class="text-outer-tspan" x="0" y="-0.1em" dy="1.1em"><tspan font-style="normal" class="text-inner-tspan" font-weight="normal">persists</tspan></tspan></text></g></g></g><g class="edgeLabel" transform="translate(1391.625, 591.5)"><g class="label" data-id="id_DetectorPipeline_GuardianJudgmentRecord_6" transform="translate(-68.1328125, -11.5)"><g><rect class="background" style="" x="-2" y="-1" width="136.265625" height="23"/><text y="-10.1" style=""><tspan class="text-outer-tspan" x="0" y="-0.1em" dy="1.1em"><tspan font-style="normal" class="text-inner-tspan" font-weight="normal">annotates</tspan><tspan font-style="normal" class="text-inner-tspan" font-weight="normal"> spans</tspan></tspan></text></g></g></g></g><g class="nodes"><g class="node default" id="classId-GuardianService-0" transform="translate(646.01953125, 134)"><g class="basic label-container"><path d="M-200.21484375 -126 L200.21484375 -126 L200.21484375 126 L-200.21484375 126" stroke="none" stroke-width="0" fill="#ECECFF" style=""/><path d="M-200.21484375 -126 C-109.84298140961613 -126, -19.47111906923226 -126, 200.21484375 -126 M-200.21484375 -126 C-75.61964129339825 -126, 48.97556116320351 -126, 200.21484375 -126 M200.21484375 -126 C200.21484375 -42.672961795398564, 200.21484375 40.65407640920287, 200.21484375 126 M200.21484375 -126 C200.21484375 -67.3954313149539, 200.21484375 -8.790862629907778, 200.21484375 126 M200.21484375 126 C44.69603389712438 126, -110.82277595575124 126, -200.21484375 126 M200.21484375 126 C51.46282822820277 126, -97.28918729359447 126, -200.21484375 126 M-200.21484375 126 C-200.21484375 47.74616193842634, -200.21484375 -30.50767612314732, -200.21484375 -126 M-200.21484375 126 C-200.21484375 73.23720097833638, -200.21484375 20.47440195667275, -200.21484375 -126" stroke="#9370DB" stroke-width="1.3" fill="none" stroke-dasharray="0 0" style=""/></g><g class="annotation-group text" transform="translate(0, -102)"/><g class="label-group text" transform="translate(-74.4296875, -102)"><g class="label" style="font-weight: bolder" transform="translate(0,-12)"><foreignObject width="148.859375" height="24"><div xmlns="http://www.w3.org/1999/xhtml" style="display: table-cell; white-space: nowrap; line-height: 1.5; max-width: 158px; text-align: center;"><span class="nodeLabel markdown-node-label" style=""><p>GuardianService</p></span></div></foreignObject></g></g><g class="members-group text" transform="translate(-188.21484375, -54)"><g class="label" style="" transform="translate(0,-12)"><foreignObject width="278.765625" height="24"><div xmlns="http://www.w3.org/1999/xhtml" style="display: table-cell; white-space: nowrap; line-height: 1.5; max-width: 280px; text-align: center;"><span class="nodeLabel markdown-node-label" style=""><p>-detectorPipeline: DetectorPipeline</p></span></div></foreignObject></g><g class="label" style="" transform="translate(0,12)"><foreignObject width="202.015625" height="24"><div xmlns="http://www.w3.org/1999/xhtml" style="display: table-cell; white-space: nowrap; line-height: 1.5; max-width: 228px; text-align: center;"><span class="nodeLabel markdown-node-label" style=""><p>-policyClient: PolicyClient</p></span></div></foreignObject></g><g class="label" style="" transform="translate(0,36)"><foreignObject width="188.96875" height="24"><div xmlns="http://www.w3.org/1999/xhtml" style="display: table-cell; white-space: nowrap; line-height: 1.5; max-width: 212px; text-align: center;"><span class="nodeLabel markdown-node-label" style=""><p>-vaultClient: VaultClient</p></span></div></foreignObject></g></g><g class="methods-group text" transform="translate(-188.21484375, 42)"><g class="label" style="" transform="translate(0,-24)"><foreignObject width="293" height="48"><div xmlns="http://www.w3.org/1999/xhtml" style="display: table; white-space: break-spaces; line-height: 1.5; max-width: 293px; text-align: center; width: 293px;"><span class="nodeLabel markdown-node-label" style=""><p>+evaluate(request: GuardianRequest)</p></span></div></foreignObject></g><g class="label" style="" transform="translate(0,24)"><foreignObject width="302" height="48"><div xmlns="http://www.w3.org/1999/xhtml" style="display: table; white-space: break-spaces; line-height: 1.5; max-width: 302px; text-align: center; width: 302px;"><span class="nodeLabel markdown-node-label" style=""><p>+enqueueReplay(resourceUrn, reason)</p></span></div></foreignObject></g></g><g class="divider" style=""><path d="M-200.21484375 -78 C-69.53384269739254 -78, 61.14715835521491 -78, 200.21484375 -78 M-200.21484375 -78 C-56.41397487582796 -78, 87.38689399834408 -78, 200.21484375 -78" stroke="#9370DB" stroke-width="1.3" fill="none" stroke-dasharray="0 0" style=""/></g><g class="divider" style=""><path d="M-200.21484375 18 C-109.41362718901692 18, -18.612410628033842 18, 200.21484375 18 M-200.21484375 18 C-64.76186368126682 18, 70.69111638746637 18, 200.21484375 18" stroke="#9370DB" stroke-width="1.3" fill="none" stroke-dasharray="0 0" style=""/></g></g><g class="node default" id="classId-GuardianRequest-1" transform="translate(183.453125, 444)"><g class="basic label-container"><path d="M-175.453125 -96 L175.453125 -96 L175.453125 96 L-175.453125 96" stroke="none" stroke-width="0" fill="#ECECFF" style=""/><path d="M-175.453125 -96 C-95.09573906646926 -96, -14.738353132938528 -96, 175.453125 -96 M-175.453125 -96 C-78.22440808244926 -96, 19.004308835101483 -96, 175.453125 -96 M175.453125 -96 C175.453125 -25.94604271149315, 175.453125 44.1079145770137, 175.453125 96 M175.453125 -96 C175.453125 -46.67055358905341, 175.453125 2.6588928218931756, 175.453125 96 M175.453125 96 C101.17510384447704 96, 26.89708268895407 96, -175.453125 96 M175.453125 96 C64.7898166454971 96, -45.873491709005805 96, -175.453125 96 M-175.453125 96 C-175.453125 50.36084607445223, -175.453125 4.7216921489044665, -175.453125 -96 M-175.453125 96 C-175.453125 43.38125310755541, -175.453125 -9.237493784889182, -175.453125 -96" stroke="#9370DB" stroke-width="1.3" fill="none" stroke-dasharray="0 0" style=""/></g><g class="annotation-group text" transform="translate(0, -72)"/><g class="label-group text" transform="translate(-78.1875, -72)"><g class="label" style="font-weight: bolder" transform="translate(0,-12)"><foreignObject width="156.375" height="24"><div xmlns="http://www.w3.org/1999/xhtml" style="display: table-cell; white-space: nowrap; line-height: 1.5; max-width: 162px; text-align: center;"><span class="nodeLabel markdown-node-label" style=""><p>GuardianRequest</p></span></div></foreignObject></g></g><g class="members-group text" transform="translate(-163.453125, -24)"><g class="label" style="" transform="translate(0,-12)"><foreignObject width="136.828125" height="24"><div xmlns="http://www.w3.org/1999/xhtml" style="display: table-cell; white-space: nowrap; line-height: 1.5; max-width: 171px; text-align: center;"><span class="nodeLabel markdown-node-label" style=""><p>+artifactId: UUID</p></span></div></foreignObject></g><g class="label" style="" transform="translate(0,12)"><foreignObject width="189.125" height="24"><div xmlns="http://www.w3.org/1999/xhtml" style="display: table-cell; white-space: nowrap; line-height: 1.5; max-width: 208px; text-align: center;"><span class="nodeLabel markdown-node-label" style=""><p>+contentHash: SHA256</p></span></div></foreignObject></g><g class="label" style="" transform="translate(0,36)"><foreignObject width="248.71875" height="24"><div xmlns="http://www.w3.org/1999/xhtml" style="display: table-cell; white-space: nowrap; line-height: 1.5; max-width: 260px; text-align: center;"><span class="nodeLabel markdown-node-label" style=""><p>+policyContextDigest: SHA256</p></span></div></foreignObject></g><g class="label" style="" transform="translate(0,60)"><foreignObject width="140.9375" height="24"><div xmlns="http://www.w3.org/1999/xhtml" style="display: table-cell; white-space: nowrap; line-height: 1.5; max-width: 176px; text-align: center;"><span class="nodeLabel markdown-node-label" style=""><p>+waiverId: UUID?</p></span></div></foreignObject></g></g><g class="methods-group text" transform="translate(-163.453125, 96)"/><g class="divider" style=""><path d="M-175.453125 -48 C-43.60918997563883 -48, 88.23474504872235 -48, 175.453125 -48 M-175.453125 -48 C-69.55741839209696 -48, 36.338288215806074 -48, 175.453125 -48" stroke="#9370DB" stroke-width="1.3" fill="none" stroke-dasharray="0 0" style=""/></g><g class="divider" style=""><path d="M-175.453125 72 C-65.42442943356919 72, 44.604266132861625 72, 175.453125 72 M-175.453125 72 C-39.97468100456791 72, 95.50376299086417 72, 175.453125 72" stroke="#9370DB" stroke-width="1.3" fill="none" stroke-dasharray="0 0" style=""/></g></g><g class="node default" id="classId-DetectorPipeline-2" transform="translate(1391.625, 444)"><g class="basic label-container"><path d="M-134.1328125 -111 L134.1328125 -111 L134.1328125 111 L-134.1328125 111" stroke="none" stroke-width="0" fill="#ECECFF" style=""/><path d="M-134.1328125 -111 C-30.101779952460717 -111, 73.92925259507857 -111, 134.1328125 -111 M-134.1328125 -111 C-39.58721618879089 -111, 54.95838012241822 -111, 134.1328125 -111 M134.1328125 -111 C134.1328125 -22.607884342037067, 134.1328125 65.78423131592587, 134.1328125 111 M134.1328125 -111 C134.1328125 -65.22890526205562, 134.1328125 -19.45781052411124, 134.1328125 111 M134.1328125 111 C35.99304919721622 111, -62.146714105567554 111, -134.1328125 111 M134.1328125 111 C32.40089874712464 111, -69.33101500575071 111, -134.1328125 111 M-134.1328125 111 C-134.1328125 23.802169912498655, -134.1328125 -63.39566017500269, -134.1328125 -111 M-134.1328125 111 C-134.1328125 60.98484385372954, -134.1328125 10.969687707459073, -134.1328125 -111" stroke="#9370DB" stroke-width="1.3" fill="none" stroke-dasharray="0 0" style=""/></g><g class="annotation-group text" transform="translate(0, -87)"/><g class="label-group text" transform="translate(-75.6875, -87)"><g class="label" style="font-weight: bolder" transform="translate(0,-12)"><foreignObject width="151.375" height="24"><div xmlns="http://www.w3.org/1999/xhtml" style="display: table-cell; white-space: nowrap; line-height: 1.5; max-width: 158px; text-align: center;"><span class="nodeLabel markdown-node-label" style=""><p>DetectorPipeline</p></span></div></foreignObject></g></g><g class="members-group text" transform="translate(-122.1328125, -39)"/><g class="methods-group text" transform="translate(-122.1328125, -9)"><g class="label" style="" transform="translate(0,-12)"><foreignObject width="168.578125" height="24"><div xmlns="http://www.w3.org/1999/xhtml" style="display: table-cell; white-space: nowrap; line-height: 1.5; max-width: 184px; text-align: center;"><span class="nodeLabel markdown-node-label" style=""><p>+runStages(content)</p></span></div></foreignObject></g><g class="label" style="" transform="translate(0,12)"><foreignObject width="127" height="24"><div xmlns="http://www.w3.org/1999/xhtml" style="display: table-cell; white-space: nowrap; line-height: 1.5; max-width: 154px; text-align: center;"><span class="nodeLabel markdown-node-label" style=""><p>-schemaStage()</p></span></div></foreignObject></g><g class="label" style="" transform="translate(0,36)"><foreignObject width="123.28125" height="24"><div xmlns="http://www.w3.org/1999/xhtml" style="display: table-cell; white-space: nowrap; line-height: 1.5; max-width: 150px; text-align: center;"><span class="nodeLabel markdown-node-label" style=""><p>-patternStage()</p></span></div></foreignObject></g><g class="label" style="" transform="translate(0,60)"><foreignObject width="84.53125" height="24"><div xmlns="http://www.w3.org/1999/xhtml" style="display: table-cell; white-space: nowrap; line-height: 1.5; max-width: 123px; text-align: center;"><span class="nodeLabel markdown-node-label" style=""><p>-mlStage()</p></span></div></foreignObject></g><g class="label" style="" transform="translate(0,84)"><foreignObject width="124.796875" height="24"><div xmlns="http://www.w3.org/1999/xhtml" style="display: table-cell; white-space: nowrap; line-height: 1.5; max-width: 153px; text-align: center;"><span class="nodeLabel markdown-node-label" style=""><p>-contextStage()</p></span></div></foreignObject></g></g><g class="divider" style=""><path d="M-134.1328125 -63 C-79.79304797794308 -63, -25.45328345588615 -63, 134.1328125 -63 M-134.1328125 -63 C-69.09690268964081 -63, -4.060992879281628 -63, 134.1328125 -63" stroke="#9370DB" stroke-width="1.3" fill="none" stroke-dasharray="0 0" style=""/></g><g class="divider" style=""><path d="M-134.1328125 -39 C-36.40700864149807 -39, 61.31879521700387 -39, 134.1328125 -39 M-134.1328125 -39 C-61.33243086651105 -39, 11.467950766977907 -39, 134.1328125 -39" stroke="#9370DB" stroke-width="1.3" fill="none" stroke-dasharray="0 0" style=""/></g></g><g class="node default" id="classId-PolicyClient-3" transform="translate(646.01953125, 444)"><g class="basic label-container"><path d="M-150.80078125 -75 L150.80078125 -75 L150.80078125 75 L-150.80078125 75" stroke="none" stroke-width="0" fill="#ECECFF" style=""/><path d="M-150.80078125 -75 C-38.89102013970172 -75, 73.01874097059655 -75, 150.80078125 -75 M-150.80078125 -75 C-56.992910183126526 -75, 36.81496088374695 -75, 150.80078125 -75 M150.80078125 -75 C150.80078125 -29.864180387918232, 150.80078125 15.271639224163536, 150.80078125 75 M150.80078125 -75 C150.80078125 -35.29391314188906, 150.80078125 4.412173716221886, 150.80078125 75 M150.80078125 75 C64.11535191794854 75, -22.57007741410291 75, -150.80078125 75 M150.80078125 75 C47.193325269839235 75, -56.41413071032153 75, -150.80078125 75 M-150.80078125 75 C-150.80078125 34.09192522683683, -150.80078125 -6.8161495463263435, -150.80078125 -75 M-150.80078125 75 C-150.80078125 19.338003319638943, -150.80078125 -36.32399336072211, -150.80078125 -75" stroke="#9370DB" stroke-width="1.3" fill="none" stroke-dasharray="0 0" style=""/></g><g class="annotation-group text" transform="translate(0, -51)"/><g class="label-group text" transform="translate(-53.1015625, -51)"><g class="label" style="font-weight: bolder" transform="translate(0,-12)"><foreignObject width="106.203125" height="24"><div xmlns="http://www.w3.org/1999/xhtml" style="display: table-cell; white-space: nowrap; line-height: 1.5; max-width: 131px; text-align: center;"><span class="nodeLabel markdown-node-label" style=""><p>PolicyClient</p></span></div></foreignObject></g></g><g class="members-group text" transform="translate(-138.80078125, -3)"/><g class="methods-group text" transform="translate(-138.80078125, 27)"><g class="label" style="" transform="translate(0,-12)"><foreignObject width="214.203125" height="24"><div xmlns="http://www.w3.org/1999/xhtml" style="display: table-cell; white-space: nowrap; line-height: 1.5; max-width: 223px; text-align: center;"><span class="nodeLabel markdown-node-label" style=""><p>+evaluate(residencyInput)</p></span></div></foreignObject></g><g class="label" style="" transform="translate(0,12)"><foreignObject width="224.5" height="24"><div xmlns="http://www.w3.org/1999/xhtml" style="display: table-cell; white-space: nowrap; line-height: 1.5; max-width: 236px; text-align: center;"><span class="nodeLabel markdown-node-label" style=""><p>+fetchPolicyContext(digest)</p></span></div></foreignObject></g></g><g class="divider" style=""><path d="M-150.80078125 -27 C-37.624447707907876 -27, 75.55188583418425 -27, 150.80078125 -27 M-150.80078125 -27 C-81.60599718046342 -27, -12.411213110926838 -27, 150.80078125 -27" stroke="#9370DB" stroke-width="1.3" fill="none" stroke-dasharray="0 0" style=""/></g><g class="divider" style=""><path d="M-150.80078125 -3 C-57.238289632768186 -3, 36.32420198446363 -3, 150.80078125 -3 M-150.80078125 -3 C-83.49529769166084 -3, -16.189814133321676 -3, 150.80078125 -3" stroke="#9370DB" stroke-width="1.3" fill="none" stroke-dasharray="0 0" style=""/></g></g><g class="node default" id="classId-VaultClient-4" transform="translate(1027.15625, 444)"><g class="basic label-container"><path d="M-180.3359375 -75 L180.3359375 -75 L180.3359375 75 L-180.3359375 75" stroke="none" stroke-width="0" fill="#ECECFF" style=""/><path d="M-180.3359375 -75 C-66.85817875092073 -75, 46.61957999815854 -75, 180.3359375 -75 M-180.3359375 -75 C-97.4401235580812 -75, -14.544309616162394 -75, 180.3359375 -75 M180.3359375 -75 C180.3359375 -25.68452455747847, 180.3359375 23.630950885043063, 180.3359375 75 M180.3359375 -75 C180.3359375 -32.12131694384524, 180.3359375 10.757366112309526, 180.3359375 75 M180.3359375 75 C91.59182007248221 75, 2.8477026449644143 75, -180.3359375 75 M180.3359375 75 C55.13393385843652 75, -70.06806978312696 75, -180.3359375 75 M-180.3359375 75 C-180.3359375 33.6083385965717, -180.3359375 -7.783322806856603, -180.3359375 -75 M-180.3359375 75 C-180.3359375 22.5151387202585, -180.3359375 -29.969722559483003, -180.3359375 -75" stroke="#9370DB" stroke-width="1.3" fill="none" stroke-dasharray="0 0" style=""/></g><g class="annotation-group text" transform="translate(0, -51)"/><g class="label-group text" transform="translate(-49.71875, -51)"><g class="label" style="font-weight: bolder" transform="translate(0,-12)"><foreignObject width="99.4375" height="24"><div xmlns="http://www.w3.org/1999/xhtml" style="display: table-cell; white-space: nowrap; line-height: 1.5; max-width: 123px; text-align: center;"><span class="nodeLabel markdown-node-label" style=""><p>VaultClient</p></span></div></foreignObject></g></g><g class="members-group text" transform="translate(-168.3359375, -3)"/><g class="methods-group text" transform="translate(-168.3359375, 27)"><g class="label" style="" transform="translate(0,-12)"><foreignObject width="115.65625" height="24"><div xmlns="http://www.w3.org/1999/xhtml" style="display: table-cell; white-space: nowrap; line-height: 1.5; max-width: 143px; text-align: center;"><span class="nodeLabel markdown-node-label" style=""><p>+mask(spans)</p></span></div></foreignObject></g><g class="label" style="" transform="translate(0,12)"><foreignObject width="286.953125" height="24"><div xmlns="http://www.w3.org/1999/xhtml" style="display: table; white-space: break-spaces; line-height: 1.5; max-width: 283px; text-align: center; width: 283px;"><span class="nodeLabel markdown-node-label" style=""><p>+persistMetadata(artifactVersionId)</p></span></div></foreignObject></g></g><g class="divider" style=""><path d="M-180.3359375 -27 C-85.48109762460537 -27, 9.373742250789263 -27, 180.3359375 -27 M-180.3359375 -27 C-51.00228015399162 -27, 78.33137719201676 -27, 180.3359375 -27" stroke="#9370DB" stroke-width="1.3" fill="none" stroke-dasharray="0 0" style=""/></g><g class="divider" style=""><path d="M-180.3359375 -3 C-54.02583424327506 -3, 72.28426901344989 -3, 180.3359375 -3 M-180.3359375 -3 C-95.21734415237164 -3, -10.098750804743275 -3, 180.3359375 -3" stroke="#9370DB" stroke-width="1.3" fill="none" stroke-dasharray="0 0" style=""/></g></g><g class="node default" id="classId-GuardianJudgmentRecord-5" transform="translate(909.34375, 724)"><g class="basic label-container"><path d="M-158.85546875 -96 L158.85546875 -96 L158.85546875 96 L-158.85546875 96" stroke="none" stroke-width="0" fill="#ECECFF" style=""/><path d="M-158.85546875 -96 C-80.67522043240122 -96, -2.4949721148024366 -96, 158.85546875 -96 M-158.85546875 -96 C-47.73497195788029 -96, 63.38552483423942 -96, 158.85546875 -96 M158.85546875 -96 C158.85546875 -55.12196748322119, 158.85546875 -14.243934966442382, 158.85546875 96 M158.85546875 -96 C158.85546875 -49.65817832890242, 158.85546875 -3.316356657804846, 158.85546875 96 M158.85546875 96 C81.2543244667061 96, 3.6531801834121893 96, -158.85546875 96 M158.85546875 96 C43.39857816711208 96, -72.05831241577584 96, -158.85546875 96 M-158.85546875 96 C-158.85546875 37.096894040753746, -158.85546875 -21.806211918492508, -158.85546875 -96 M-158.85546875 96 C-158.85546875 44.021529831030215, -158.85546875 -7.956940337939571, -158.85546875 -96" stroke="#9370DB" stroke-width="1.3" fill="none" stroke-dasharray="0 0" style=""/></g><g class="annotation-group text" transform="translate(0, -72)"/><g class="label-group text" transform="translate(-116.0703125, -72)"><g class="label" style="font-weight: bolder" transform="translate(0,-12)"><foreignObject width="232.140625" height="24"><div xmlns="http://www.w3.org/1999/xhtml" style="display: table; white-space: break-spaces; line-height: 1.5; max-width: 218px; text-align: center; width: 218px;"><span class="nodeLabel markdown-node-label" style=""><p>GuardianJudgmentRecord</p></span></div></foreignObject></g></g><g class="members-group text" transform="translate(-146.85546875, -24)"><g class="label" style="" transform="translate(0,-12)"><foreignObject width="78.953125" height="24"><div xmlns="http://www.w3.org/1999/xhtml" style="display: table-cell; white-space: nowrap; line-height: 1.5; max-width: 124px; text-align: center;"><span class="nodeLabel markdown-node-label" style=""><p>+id: UUID</p></span></div></foreignObject></g><g class="label" style="" transform="translate(0,12)"><foreignObject width="177.640625" height="24"><div xmlns="http://www.w3.org/1999/xhtml" style="display: table-cell; white-space: nowrap; line-height: 1.5; max-width: 195px; text-align: center;"><span class="nodeLabel markdown-node-label" style=""><p>+judgment: Judgment</p></span></div></foreignObject></g><g class="label" style="" transform="translate(0,36)"><foreignObject width="155.296875" height="24"><div xmlns="http://www.w3.org/1999/xhtml" style="display: table-cell; white-space: nowrap; line-height: 1.5; max-width: 179px; text-align: center;"><span class="nodeLabel markdown-node-label" style=""><p>+reasonCodes: List</p></span></div></foreignObject></g><g class="label" style="" transform="translate(0,60)"><foreignObject width="140.9375" height="24"><div xmlns="http://www.w3.org/1999/xhtml" style="display: table-cell; white-space: nowrap; line-height: 1.5; max-width: 176px; text-align: center;"><span class="nodeLabel markdown-node-label" style=""><p>+waiverId: UUID?</p></span></div></foreignObject></g></g><g class="methods-group text" transform="translate(-146.85546875, 96)"/><g class="divider" style=""><path d="M-158.85546875 -48 C-62.727434698482554 -48, 33.40059935303489 -48, 158.85546875 -48 M-158.85546875 -48 C-40.888175168403976 -48, 77.07911841319205 -48, 158.85546875 -48" stroke="#9370DB" stroke-width="1.3" fill="none" stroke-dasharray="0 0" style=""/></g><g class="divider" style=""><path d="M-158.85546875 72 C-80.95603339012507 72, -3.056598030250143 72, 158.85546875 72 M-158.85546875 72 C-78.7941878616176 72, 1.2670930267647975 72, 158.85546875 72" stroke="#9370DB" stroke-width="1.3" fill="none" stroke-dasharray="0 0" style=""/></g></g></g></g></g></svg>