<svg id="my-svg" width="100%" xmlns="http://www.w3.org/2000/svg" xmlns:xlink="http://www.w3.org/1999/xlink" class="classDiagram" style="max-width: 993.727px; background-color: white;" viewBox="0 0 993.7265625 788" role="graphics-document document" aria-roledescription="class"><style>#my-svg{font-family:"trebuchet ms",verdana,arial,sans-serif;font-size:16px;fill:#333;}@keyframes edge-animation-frame{from{stroke-dashoffset:0;}}@keyframes dash{to{stroke-dashoffset:0;}}#my-svg .edge-animation-slow{stroke-dasharray:9,5!important;stroke-dashoffset:900;animation:dash 50s linear infinite;stroke-linecap:round;}#my-svg .edge-animation-fast{stroke-dasharray:9,5!important;stroke-dashoffset:900;animation:dash 20s linear infinite;stroke-linecap:round;}#my-svg .error-icon{fill:#552222;}#my-svg .error-text{fill:#552222;stroke:#552222;}#my-svg .edge-thickness-normal{stroke-width:1px;}#my-svg .edge-thickness-thick{stroke-width:3.5px;}#my-svg .edge-pattern-solid{stroke-dasharray:0;}#my-svg .edge-thickness-invisible{stroke-width:0;fill:none;}#my-svg .edge-pattern-dashed{stroke-dasharray:3;}#my-svg .edge-pattern-dotted{stroke-dasharray:2;}#my-svg .marker{fill:#333333;stroke:#333333;}#my-svg .marker.cross{stroke:#333333;}#my-svg svg{font-family:"trebuchet ms",verdana,arial,sans-serif;font-size:16px;}#my-svg p{margin:0;}#my-svg g.classGroup text{fill:#9370DB;stroke:none;font-family:"trebuchet ms",verdana,arial,sans-serif;font-size:10px;}#my-svg g.classGroup text .title{font-weight:bolder;}#my-svg .nodeLabel,#my-svg .edgeLabel{color:#131300;}#my-svg .edgeLabel .label rect{fill:#ECECFF;}#my-svg .label text{fill:#131300;}#my-svg .labelBkg{background:#ECECFF;}#my-svg .edgeLabel .label span{background:#ECECFF;}#my-svg .classTitle{font-weight:bolder;}#my-svg .node rect,#my-svg .node circle,#my-svg .node ellipse,#my-svg .node polygon,#my-svg .node path{fill:#ECECFF;stroke:#9370DB;stroke-width:1px;}#my-svg .divider{stroke:#9370DB;stroke-width:1;}#my-svg g.clickable{cursor:pointer;}#my-svg g.classGroup rect{fill:#ECECFF;stroke:#9370DB;}#my-svg g.classGroup line{stroke:#9370DB;stroke-width:1;}#my-svg .classLabel .box{stroke:none;stroke-width:0;fill:#ECECFF;opacity:0.5;}#my-svg .classLabel .label{fill:#9370DB;font-size:10px;}#my-svg .relation{stroke:#333333;stroke-width:1;fill:none;}#my-svg .dashed-line{stroke-dasharray:3;}#my-svg .dotted-line{stroke-dasharray:1 2;}#my-svg #compositionStart,#my-svg .composition{fill:#333333!important;stroke:#333333!important;stroke-width:1;}#my-svg #compositionEnd,#my-svg .composition{fill:#333333!important;stroke:#333333!important;stroke-width:1;}#my-svg #dependencyStart,#my-svg .dependency{fill:#333333!important;stroke:#333333!important;stroke-width:1;}#my-svg #dependencyStart,#my-svg .dependency{fill:#333333!important;stroke:#333333!important;stroke-width:1;}#my-svg #extensionStart,#my-svg .extension{fill:transparent!important;stroke:#333333!important;stroke-width:1;}#my-svg #extensionEnd,#my-svg .extension{fill:transparent!important;stroke:#333333!important;stroke-width:1;}#my-svg #aggregationStart,#my-svg .aggregation{fill:transparent!important;stroke:#333333!important;stroke-width:1;}#my-svg #aggregationEnd,#my-svg .aggregation{fill:transparent!important;stroke:#333333!important;stroke-width:1;}#my-svg #lollipopStart,#my-svg .lollipop{fill:#ECECFF!important;stroke:#333333!important;stroke-width:1;}#my-svg #lollipopEnd,#my-svg .lollipop{fill:#ECECFF!important;stroke:#333333!important;stroke-width:1;}#my-svg .edgeTerminals{font-size:11px;line-height:initial;}#my-svg .classTitleText{text-anchor:middle;font-size:18px;fill:#333;}#my-svg .label-icon{display:inline-block;height:1em;overflow:visible;vertical-align:-0.125em;}#my-svg .node .label-icon path{fill:currentColor;stroke:revert;stroke-width:revert;}#my-svg :root{--mermaid-font-family:"trebuchet ms",verdana,arial,sans-serif;}</style><g><defs><marker id="my-svg_class-aggregationStart" class="marker aggregation class" refX="18" refY="7" markerWidth="190" markerHeight="240" orient="auto"><path d="M 18,7 L9,13 L1,7 L9,1 Z"/></marker></defs><defs><marker id="my-svg_class-aggregationEnd" class="marker aggregation class" refX="1" refY="7" markerWidth="20" markerHeight="28" orient="auto"><path d="M 18,7 L9,13 L1,7 L9,1 Z"/></marker></defs><defs><marker id="my-svg_class-extensionStart" class="marker extension class" refX="18" refY="7" markerWidth="190" markerHeight="240" orient="auto"><path d="M 1,7 L18,13 V 1 Z"/></marker></defs><defs><marker id="my-svg_class-extensionEnd" class="marker extension class" refX="1" refY="7" markerWidth="20" markerHeight="28" orient="auto"><path d="M 1,1 V 13 L18,7 Z"/></marker></defs><defs><marker id="my-svg_class-compositionStart" class="marker composition class" refX="18" refY="7" markerWidth="190" markerHeight="240" orient="auto"><path d="M 18,7 L9,13 L1,7 L9,1 Z"/></marker></defs><defs><marker id="my-svg_class-compositionEnd" class="marker composition class" refX="1" refY="7" markerWidth="20" markerHeight="28" orient="auto"><path d="M 18,7 L9,13 L1,7 L9,1 Z"/></marker></defs><defs><marker id="my-svg_class-dependencyStart" class="marker dependency class" refX="6" refY="7" markerWidth="190" markerHeight="240" orient="auto"><path d="M 5,7 L9,13 L1,7 L9,1 Z"/></marker></defs><defs><marker id="my-svg_class-dependencyEnd" class="marker dependency class" refX="13" refY="7" markerWidth="20" markerHeight="28" orient="auto"><path d="M 18,7 L9,13 L14,7 L9,1 Z"/></marker></defs><defs><marker id="my-svg_class-lollipopStart" class="marker lollipop class" refX="13" refY="7" markerWidth="190" markerHeight="240" orient="auto"><circle stroke="black" fill="transparent" cx="7" cy="7" r="6"/></marker></defs><defs><marker id="my-svg_class-lollipopEnd" class="marker lollipop class" refX="1" refY="7" markerWidth="190" markerHeight="240" orient="auto"><circle stroke="black" fill="transparent" cx="7" cy="7" r="6"/></marker></defs><g class="root"><g class="clusters"/><g class="edgePaths"><path d="M362.34,179.912L307.878,197.427C253.417,214.942,144.493,249.971,90.032,287.652C35.57,325.333,35.57,365.667,35.57,406C35.57,446.333,35.57,486.667,40.408,514.165C45.246,541.664,54.922,556.328,59.76,563.66L64.598,570.992" id="id_ActivationService_SettingsBundle_1" class="edge-thickness-normal edge-pattern-solid relation" style=";;;" data-edge="true" data-et="edge" data-id="id_ActivationService_SettingsBundle_1" data-points="W3sieCI6MzYyLjMzOTg0Mzc1LCJ5IjoxNzkuOTEyNDk1ODk5MjQ1NDd9LHsieCI6MzUuNTcwMzEyNSwieSI6Mjg1fSx7IngiOjM1LjU3MDMxMjUsInkiOjQwNn0seyJ4IjozNS41NzAzMTI1LCJ5Ijo1Mjd9LHsieCI6NjcuOTAyNzg4MjU0MzEwMzQsInkiOjU3Nn1d" marker-end="url(#my-svg_class-dependencyEnd)"/><path d="M665.9,248L673.205,254.167C680.509,260.333,695.118,272.667,702.422,299C709.727,325.333,709.727,365.667,709.727,406C709.727,446.333,709.727,486.667,712.873,512.14C716.02,537.613,722.313,548.226,725.459,553.533L728.606,558.839" id="id_ActivationService_ActivationRequest_2" class="edge-thickness-normal edge-pattern-solid relation" style=";;;" data-edge="true" data-et="edge" data-id="id_ActivationService_ActivationRequest_2" data-points="W3sieCI6NjY1LjkwMDQ1MjgyNjQzMzEsInkiOjI0OH0seyJ4Ijo3MDkuNzI2NTYyNSwieSI6Mjg1fSx7IngiOjcwOS43MjY1NjI1LCJ5Ijo0MDZ9LHsieCI6NzA5LjcyNjU2MjUsInkiOjUyN30seyJ4Ijo3MzEuNjY1OTA3ODY2Mzc5MywieSI6NTY0fV0=" marker-end="url(#my-svg_class-dependencyEnd)"/><path d="M362.34,213.378L339.771,225.315C317.202,237.252,272.064,261.126,249.495,278.23C226.926,295.333,226.926,305.667,226.926,310.833L226.926,316" id="id_ActivationService_ValidationPipeline_3" class="edge-thickness-normal edge-pattern-solid relation" style=";;;" data-edge="true" data-et="edge" data-id="id_ActivationService_ValidationPipeline_3" data-points="W3sieCI6MzYyLjMzOTg0Mzc1LCJ5IjoyMTMuMzc3OTE4MTQ3MTI0Nn0seyJ4IjoyMjYuOTI1NzgxMjUsInkiOjI4NX0seyJ4IjoyMjYuOTI1NzgxMjUsInkiOjMyMn1d" marker-end="url(#my-svg_class-dependencyEnd)"/><path d="M685.184,198.807L717.934,213.172C750.684,227.538,816.184,256.269,848.934,277.301C881.684,298.333,881.684,311.667,881.684,318.333L881.684,325" id="id_ActivationService_PolicyCompiler_4" class="edge-thickness-normal edge-pattern-solid relation" style=";;;" data-edge="true" data-et="edge" data-id="id_ActivationService_PolicyCompiler_4" data-points="W3sieCI6Njg1LjE4MzU5Mzc1LCJ5IjoxOTguODA2NjA5MzMzMzkxNTJ9LHsieCI6ODgxLjY4MzU5Mzc1LCJ5IjoyODV9LHsieCI6ODgxLjY4MzU5Mzc1LCJ5IjozMzF9XQ==" marker-end="url(#my-svg_class-dependencyEnd)"/><path d="M523.762,248L523.762,254.167C523.762,260.333,523.762,272.667,523.762,287.5C523.762,302.333,523.762,319.667,523.762,328.333L523.762,337" id="id_ActivationService_AuditClient_5" class="edge-thickness-normal edge-pattern-solid relation" style=";;;" data-edge="true" data-et="edge" data-id="id_ActivationService_AuditClient_5" data-points="W3sieCI6NTIzLjc2MTcxODc1LCJ5IjoyNDh9LHsieCI6NTIzLjc2MTcxODc1LCJ5IjoyODV9LHsieCI6NTIzLjc2MTcxODc1LCJ5IjozNDN9XQ==" marker-end="url(#my-svg_class-dependencyEnd)"/><path d="M226.926,490L226.926,496.167C226.926,502.333,226.926,514.667,222.088,528.165C217.25,541.664,207.574,556.328,202.736,563.66L197.898,570.992" id="id_ValidationPipeline_SettingsBundle_6" class="edge-thickness-normal edge-pattern-solid relation" style=";;;" data-edge="true" data-et="edge" data-id="id_ValidationPipeline_SettingsBundle_6" data-points="W3sieCI6MjI2LjkyNTc4MTI1LCJ5Ijo0OTB9LHsieCI6MjI2LjkyNTc4MTI1LCJ5Ijo1Mjd9LHsieCI6MTk0LjU5MzMwNTQ5NTY4OTY2LCJ5Ijo1NzZ9XQ==" marker-end="url(#my-svg_class-dependencyEnd)"/><path d="M881.684,481L881.684,488.667C881.684,496.333,881.684,511.667,878.537,524.64C875.391,537.613,869.097,548.226,865.951,553.533L862.804,558.839" id="id_PolicyCompiler_ActivationRequest_7" class="edge-thickness-normal edge-pattern-solid relation" style=";;;" data-edge="true" data-et="edge" data-id="id_PolicyCompiler_ActivationRequest_7" data-points="W3sieCI6ODgxLjY4MzU5Mzc1LCJ5Ijo0ODF9LHsieCI6ODgxLjY4MzU5Mzc1LCJ5Ijo1Mjd9LHsieCI6ODU5Ljc0NDI0ODM4MzYyMDcsInkiOjU2NH1d" marker-end="url(#my-svg_class-dependencyEnd)"/></g><g class="edgeLabels"><g class="edgeLabel" transform="translate(35.5703125, 406)"><g class="label" data-id="id_ActivationService_SettingsBundle_1" transform="translate(-27.5703125, -12)"><foreignObject width="55.140625" height="24"><div xmlns="http://www.w3.org/1999/xhtml" class="labelBkg" style="display: table-cell; white-space: nowrap; line-height: 1.5; max-width: 200px; text-align: center;"><span class="edgeLabel"><p>accepts</p></span></div></foreignObject></g></g><g class="edgeLabel" transform="translate(709.7265625, 406)"><g class="label" data-id="id_ActivationService_ActivationRequest_2" transform="translate(-32.9140625, -12)"><foreignObject width="65.828125" height="24"><div xmlns="http://www.w3.org/1999/xhtml" class="labelBkg" style="display: table-cell; white-space: nowrap; line-height: 1.5; max-width: 200px; text-align: center;"><span class="edgeLabel"><p>manages</p></span></div></foreignObject></g></g><g class="edgeLabel" transform="translate(226.92578125, 285)"><g class="label" data-id="id_ActivationService_ValidationPipeline_3" transform="translate(-27.125, -12)"><foreignObject width="54.25" height="24"><div xmlns="http://www.w3.org/1999/xhtml" class="labelBkg" style="display: table-cell; white-space: nowrap; line-height: 1.5; max-width: 200px; text-align: center;"><span class="edgeLabel"><p>invokes</p></span></div></foreignObject></g></g><g class="edgeLabel" transform="translate(881.68359375, 285)"><g class="label" data-id="id_ActivationService_PolicyCompiler_4" transform="translate(-31.5703125, -12)"><foreignObject width="63.140625" height="24"><div xmlns="http://www.w3.org/1999/xhtml" class="labelBkg" style="display: table-cell; white-space: nowrap; line-height: 1.5; max-width: 200px; text-align: center;"><span class="edgeLabel"><p>compiles</p></span></div></foreignObject></g></g><g class="edgeLabel" transform="translate(523.76171875, 285)"><g class="label" data-id="id_ActivationService_AuditClient_5" transform="translate(-19.1171875, -12)"><foreignObject width="38.234375" height="24"><div xmlns="http://www.w3.org/1999/xhtml" class="labelBkg" style="display: table-cell; white-space: nowrap; line-height: 1.5; max-width: 200px; text-align: center;"><span class="edgeLabel"><p>emits</p></span></div></foreignObject></g></g><g class="edgeLabel" transform="translate(226.92578125, 527)"><g class="label" data-id="id_ValidationPipeline_SettingsBundle_6" transform="translate(-29.3515625, -12)"><foreignObject width="58.703125" height="24"><div xmlns="http://www.w3.org/1999/xhtml" class="labelBkg" style="display: table-cell; white-space: nowrap; line-height: 1.5; max-width: 200px; text-align: center;"><span class="edgeLabel"><p>inspects</p></span></div></foreignObject></g></g><g class="edgeLabel" transform="translate(881.68359375, 527)"><g class="label" data-id="id_PolicyCompiler_ActivationRequest_7" transform="translate(-81.8359375, -12)"><foreignObject width="163.671875" height="24"><div xmlns="http://www.w3.org/1999/xhtml" class="labelBkg" style="display: table-cell; white-space: nowrap; line-height: 1.5; max-width: 200px; text-align: center;"><span class="edgeLabel"><p>updates snapshotHash</p></span></div></foreignObject></g></g></g><g class="nodes"><g class="node default" id="classId-ActivationService-0" transform="translate(523.76171875, 128)"><g class="basic label-container"><path d="M-161.421875 -120 L161.421875 -120 L161.421875 120 L-161.421875 120" stroke="none" stroke-width="0" fill="#ECECFF" style=""/><path d="M-161.421875 -120 C-61.99256523492237 -120, 37.436744530155266 -120, 161.421875 -120 M-161.421875 -120 C-50.28431620549547 -120, 60.85324258900906 -120, 161.421875 -120 M161.421875 -120 C161.421875 -32.48134073206528, 161.421875 55.037318535869446, 161.421875 120 M161.421875 -120 C161.421875 -27.442156382443684, 161.421875 65.11568723511263, 161.421875 120 M161.421875 120 C66.63088598058926 120, -28.16010303882149 120, -161.421875 120 M161.421875 120 C64.44546282402641 120, -32.530949351947186 120, -161.421875 120 M-161.421875 120 C-161.421875 51.82776892728205, -161.421875 -16.344462145435898, -161.421875 -120 M-161.421875 120 C-161.421875 48.95394207106207, -161.421875 -22.092115857875854, -161.421875 -120" stroke="#9370DB" stroke-width="1.3" fill="none" stroke-dasharray="0 0" style=""/></g><g class="annotation-group text" transform="translate(0, -96)"/><g class="label-group text" transform="translate(-67.140625, -96)"><g class="label" style="font-weight: bolder" transform="translate(0,-12)"><foreignObject width="134.28125" height="24"><div xmlns="http://www.w3.org/1999/xhtml" style="display: table-cell; white-space: nowrap; line-height: 1.5; max-width: 166px; text-align: center;"><span class="nodeLabel markdown-node-label" style=""><p>ActivationService</p></span></div></foreignObject></g></g><g class="members-group text" transform="translate(-149.421875, -48)"><g class="label" style="" transform="translate(0,-12)"><foreignObject width="200.71875" height="24"><div xmlns="http://www.w3.org/1999/xhtml" style="display: table-cell; white-space: nowrap; line-height: 1.5; max-width: 243px; text-align: center;"><span class="nodeLabel markdown-node-label" style=""><p>-validator: ValidationPipeline</p></span></div></foreignObject></g><g class="label" style="" transform="translate(0,12)"><foreignObject width="181.375" height="24"><div xmlns="http://www.w3.org/1999/xhtml" style="display: table-cell; white-space: nowrap; line-height: 1.5; max-width: 227px; text-align: center;"><span class="nodeLabel markdown-node-label" style=""><p>-compiler: PolicyCompiler</p></span></div></foreignObject></g><g class="label" style="" transform="translate(0,36)"><foreignObject width="166.3125" height="24"><div xmlns="http://www.w3.org/1999/xhtml" style="display: table-cell; white-space: nowrap; line-height: 1.5; max-width: 215px; text-align: center;"><span class="nodeLabel markdown-node-label" style=""><p>-auditClient: AuditClient</p></span></div></foreignObject></g></g><g class="methods-group text" transform="translate(-149.421875, 48)"><g class="label" style="" transform="translate(0,-12)"><foreignObject width="231.703125" height="24"><div xmlns="http://www.w3.org/1999/xhtml" style="display: table-cell; white-space: nowrap; line-height: 1.5; max-width: 267px; text-align: center;"><span class="nodeLabel markdown-node-label" style=""><p>+submit(bundle: SettingsBundle)</p></span></div></foreignObject></g><g class="label" style="" transform="translate(0,12)"><foreignObject width="192.53125" height="24"><div xmlns="http://www.w3.org/1999/xhtml" style="display: table-cell; white-space: nowrap; line-height: 1.5; max-width: 234px; text-align: center;"><span class="nodeLabel markdown-node-label" style=""><p>+approve(requestId: UUID)</p></span></div></foreignObject></g><g class="label" style="" transform="translate(0,36)"><foreignObject width="190.75" height="24"><div xmlns="http://www.w3.org/1999/xhtml" style="display: table-cell; white-space: nowrap; line-height: 1.5; max-width: 231px; text-align: center;"><span class="nodeLabel markdown-node-label" style=""><p>+execute(requestId: UUID)</p></span></div></foreignObject></g></g><g class="divider" style=""><path d="M-161.421875 -72 C-38.12270855882679 -72, 85.17645788234643 -72, 161.421875 -72 M-161.421875 -72 C-76.68460543477048 -72, 8.05266413045905 -72, 161.421875 -72" stroke="#9370DB" stroke-width="1.3" fill="none" stroke-dasharray="0 0" style=""/></g><g class="divider" style=""><path d="M-161.421875 24 C-95.12549049584385 24, -28.829105991687697 24, 161.421875 24 M-161.421875 24 C-49.174531671224514 24, 63.07281165755097 24, 161.421875 24" stroke="#9370DB" stroke-width="1.3" fill="none" stroke-dasharray="0 0" style=""/></g></g><g class="node default" id="classId-SettingsBundle-1" transform="translate(131.248046875, 672)"><g class="basic label-container"><path d="M-118.5 -96 L118.5 -96 L118.5 96 L-118.5 96" stroke="none" stroke-width="0" fill="#ECECFF" style=""/><path d="M-118.5 -96 C-30.731921041608928 -96, 57.036157916782145 -96, 118.5 -96 M-118.5 -96 C-50.18113327674732 -96, 18.137733446505365 -96, 118.5 -96 M118.5 -96 C118.5 -40.896853783323074, 118.5 14.206292433353852, 118.5 96 M118.5 -96 C118.5 -44.02846976717947, 118.5 7.943060465641054, 118.5 96 M118.5 96 C60.55043030131495 96, 2.6008606026298935 96, -118.5 96 M118.5 96 C40.41524651242419 96, -37.66950697515162 96, -118.5 96 M-118.5 96 C-118.5 23.911417709259965, -118.5 -48.17716458148007, -118.5 -96 M-118.5 96 C-118.5 31.8915567866797, -118.5 -32.2168864266406, -118.5 -96" stroke="#9370DB" stroke-width="1.3" fill="none" stroke-dasharray="0 0" style=""/></g><g class="annotation-group text" transform="translate(0, -72)"/><g class="label-group text" transform="translate(-58.671875, -72)"><g class="label" style="font-weight: bolder" transform="translate(0,-12)"><foreignObject width="117.34375" height="24"><div xmlns="http://www.w3.org/1999/xhtml" style="display: table-cell; white-space: nowrap; line-height: 1.5; max-width: 148px; text-align: center;"><span class="nodeLabel markdown-node-label" style=""><p>SettingsBundle</p></span></div></foreignObject></g></g><g class="members-group text" transform="translate(-106.5, -24)"><g class="label" style="" transform="translate(0,-12)"><foreignObject width="69.796875" height="24"><div xmlns="http://www.w3.org/1999/xhtml" style="display: table-cell; white-space: nowrap; line-height: 1.5; max-width: 124px; text-align: center;"><span class="nodeLabel markdown-node-label" style=""><p>+id: UUID</p></span></div></foreignObject></g><g class="label" style="" transform="translate(0,12)"><foreignObject width="106.296875" height="24"><div xmlns="http://www.w3.org/1999/xhtml" style="display: table-cell; white-space: nowrap; line-height: 1.5; max-width: 147px; text-align: center;"><span class="nodeLabel markdown-node-label" style=""><p>+scope: Scope</p></span></div></foreignObject></g><g class="label" style="" transform="translate(0,36)"><foreignObject width="116.953125" height="24"><div xmlns="http://www.w3.org/1999/xhtml" style="display: table-cell; white-space: nowrap; line-height: 1.5; max-width: 161px; text-align: center;"><span class="nodeLabel markdown-node-label" style=""><p>+payload: JSON</p></span></div></foreignObject></g><g class="label" style="" transform="translate(0,60)"><foreignObject width="154.328125" height="24"><div xmlns="http://www.w3.org/1999/xhtml" style="display: table-cell; white-space: nowrap; line-height: 1.5; max-width: 192px; text-align: center;"><span class="nodeLabel markdown-node-label" style=""><p>+unsafeReasons: List</p></span></div></foreignObject></g></g><g class="methods-group text" transform="translate(-106.5, 96)"/><g class="divider" style=""><path d="M-118.5 -48 C-39.79642899737239 -48, 38.907142005255224 -48, 118.5 -48 M-118.5 -48 C-44.69909159155455 -48, 29.101816816890903 -48, 118.5 -48" stroke="#9370DB" stroke-width="1.3" fill="none" stroke-dasharray="0 0" style=""/></g><g class="divider" style=""><path d="M-118.5 72 C-67.46741128276386 72, -16.43482256552774 72, 118.5 72 M-118.5 72 C-57.07069913218567 72, 4.358601735628653 72, 118.5 72" stroke="#9370DB" stroke-width="1.3" fill="none" stroke-dasharray="0 0" style=""/></g></g><g class="node default" id="classId-ActivationRequest-2" transform="translate(795.705078125, 672)"><g class="basic label-container"><path d="M-137.1796875 -108 L137.1796875 -108 L137.1796875 108 L-137.1796875 108" stroke="none" stroke-width="0" fill="#ECECFF" style=""/><path d="M-137.1796875 -108 C-44.29493267783117 -108, 48.58982214433766 -108, 137.1796875 -108 M-137.1796875 -108 C-45.85354543266219 -108, 45.472596634675625 -108, 137.1796875 -108 M137.1796875 -108 C137.1796875 -57.51385784684231, 137.1796875 -7.027715693684627, 137.1796875 108 M137.1796875 -108 C137.1796875 -36.43117890842241, 137.1796875 35.13764218315518, 137.1796875 108 M137.1796875 108 C29.52704281049661 108, -78.12560187900678 108, -137.1796875 108 M137.1796875 108 C75.11518873636237 108, 13.05068997272474 108, -137.1796875 108 M-137.1796875 108 C-137.1796875 52.61069886098042, -137.1796875 -2.778602278039159, -137.1796875 -108 M-137.1796875 108 C-137.1796875 30.86149056445423, -137.1796875 -46.27701887109154, -137.1796875 -108" stroke="#9370DB" stroke-width="1.3" fill="none" stroke-dasharray="0 0" style=""/></g><g class="annotation-group text" transform="translate(0, -84)"/><g class="label-group text" transform="translate(-70.234375, -84)"><g class="label" style="font-weight: bolder" transform="translate(0,-12)"><foreignObject width="140.46875" height="24"><div xmlns="http://www.w3.org/1999/xhtml" style="display: table-cell; white-space: nowrap; line-height: 1.5; max-width: 170px; text-align: center;"><span class="nodeLabel markdown-node-label" style=""><p>ActivationRequest</p></span></div></foreignObject></g></g><g class="members-group text" transform="translate(-125.1796875, -36)"><g class="label" style="" transform="translate(0,-12)"><foreignObject width="69.796875" height="24"><div xmlns="http://www.w3.org/1999/xhtml" style="display: table-cell; white-space: nowrap; line-height: 1.5; max-width: 124px; text-align: center;"><span class="nodeLabel markdown-node-label" style=""><p>+id: UUID</p></span></div></foreignObject></g><g class="label" style="" transform="translate(0,12)"><foreignObject width="118.734375" height="24"><div xmlns="http://www.w3.org/1999/xhtml" style="display: table-cell; white-space: nowrap; line-height: 1.5; max-width: 169px; text-align: center;"><span class="nodeLabel markdown-node-label" style=""><p>+bundleId: UUID</p></span></div></foreignObject></g><g class="label" style="" transform="translate(0,36)"><foreignObject width="174.765625" height="24"><div xmlns="http://www.w3.org/1999/xhtml" style="display: table-cell; white-space: nowrap; line-height: 1.5; max-width: 214px; text-align: center;"><span class="nodeLabel markdown-node-label" style=""><p>+status: ActivationStatus</p></span></div></foreignObject></g><g class="label" style="" transform="translate(0,60)"><foreignObject width="114.28125" height="24"><div xmlns="http://www.w3.org/1999/xhtml" style="display: table-cell; white-space: nowrap; line-height: 1.5; max-width: 160px; text-align: center;"><span class="nodeLabel markdown-node-label" style=""><p>+approvers: List</p></span></div></foreignObject></g><g class="label" style="" transform="translate(0,84)"><foreignObject width="180.125" height="24"><div xmlns="http://www.w3.org/1999/xhtml" style="display: table-cell; white-space: nowrap; line-height: 1.5; max-width: 217px; text-align: center;"><span class="nodeLabel markdown-node-label" style=""><p>+snapshotHash: SHA256</p></span></div></foreignObject></g></g><g class="methods-group text" transform="translate(-125.1796875, 108)"/><g class="divider" style=""><path d="M-137.1796875 -60 C-34.32366871047783 -60, 68.53235007904433 -60, 137.1796875 -60 M-137.1796875 -60 C-70.6155804185437 -60, -4.051473337087401 -60, 137.1796875 -60" stroke="#9370DB" stroke-width="1.3" fill="none" stroke-dasharray="0 0" style=""/></g><g class="divider" style=""><path d="M-137.1796875 84 C-51.02447909358365 84, 35.1307293128327 84, 137.1796875 84 M-137.1796875 84 C-73.26395840084564 84, -9.348229301691276 84, 137.1796875 84" stroke="#9370DB" stroke-width="1.3" fill="none" stroke-dasharray="0 0" style=""/></g></g><g class="node default" id="classId-ValidationPipeline-3" transform="translate(226.92578125, 406)"><g class="basic label-container"><path d="M-128.78515625 -84 L128.78515625 -84 L128.78515625 84 L-128.78515625 84" stroke="none" stroke-width="0" fill="#ECECFF" style=""/><path d="M-128.78515625 -84 C-50.16749100671197 -84, 28.45017423657606 -84, 128.78515625 -84 M-128.78515625 -84 C-73.5345052754491 -84, -18.283854300898227 -84, 128.78515625 -84 M128.78515625 -84 C128.78515625 -41.360243165243304, 128.78515625 1.279513669513392, 128.78515625 84 M128.78515625 -84 C128.78515625 -50.25584151721655, 128.78515625 -16.511683034433105, 128.78515625 84 M128.78515625 84 C52.07206840334368 84, -24.641019443312643 84, -128.78515625 84 M128.78515625 84 C42.94098725660787 84, -42.90318173678426 84, -128.78515625 84 M-128.78515625 84 C-128.78515625 37.73021959134438, -128.78515625 -8.53956081731124, -128.78515625 -84 M-128.78515625 84 C-128.78515625 23.908893611842522, -128.78515625 -36.182212776314955, -128.78515625 -84" stroke="#9370DB" stroke-width="1.3" fill="none" stroke-dasharray="0 0" style=""/></g><g class="annotation-group text" transform="translate(0, -60)"/><g class="label-group text" transform="translate(-68.4609375, -60)"><g class="label" style="font-weight: bolder" transform="translate(0,-12)"><foreignObject width="136.921875" height="24"><div xmlns="http://www.w3.org/1999/xhtml" style="display: table-cell; white-space: nowrap; line-height: 1.5; max-width: 168px; text-align: center;"><span class="nodeLabel markdown-node-label" style=""><p>ValidationPipeline</p></span></div></foreignObject></g></g><g class="members-group text" transform="translate(-116.78515625, -12)"><g class="label" style="" transform="translate(0,-12)"><foreignObject width="165.109375" height="24"><div xmlns="http://www.w3.org/1999/xhtml" style="display: table-cell; white-space: nowrap; line-height: 1.5; max-width: 207px; text-align: center;"><span class="nodeLabel markdown-node-label" style=""><p>-schemaValidators: List</p></span></div></foreignObject></g><g class="label" style="" transform="translate(0,12)"><foreignObject width="149.984375" height="24"><div xmlns="http://www.w3.org/1999/xhtml" style="display: table-cell; white-space: nowrap; line-height: 1.5; max-width: 199px; text-align: center;"><span class="nodeLabel markdown-node-label" style=""><p>-policyValidators: List</p></span></div></foreignObject></g></g><g class="methods-group text" transform="translate(-116.78515625, 60)"><g class="label" style="" transform="translate(0,-12)"><foreignObject width="91.171875" height="24"><div xmlns="http://www.w3.org/1999/xhtml" style="display: table-cell; white-space: nowrap; line-height: 1.5; max-width: 139px; text-align: center;"><span class="nodeLabel markdown-node-label" style=""><p>+run(bundle)</p></span></div></foreignObject></g></g><g class="divider" style=""><path d="M-128.78515625 -36 C-73.91748482905899 -36, -19.049813408117984 -36, 128.78515625 -36 M-128.78515625 -36 C-76.2391317938908 -36, -23.693107337781626 -36, 128.78515625 -36" stroke="#9370DB" stroke-width="1.3" fill="none" stroke-dasharray="0 0" style=""/></g><g class="divider" style=""><path d="M-128.78515625 36 C-53.49341635477964 36, 21.79832354044072 36, 128.78515625 36 M-128.78515625 36 C-35.4663818116133 36, 57.852392626773394 36, 128.78515625 36" stroke="#9370DB" stroke-width="1.3" fill="none" stroke-dasharray="0 0" style=""/></g></g><g class="node default" id="classId-PolicyCompiler-4" transform="translate(881.68359375, 406)"><g class="basic label-container"><path d="M-104.04296875 -75 L104.04296875 -75 L104.04296875 75 L-104.04296875 75" stroke="none" stroke-width="0" fill="#ECECFF" style=""/><path d="M-104.04296875 -75 C-41.46965248658364 -75, 21.103663776832718 -75, 104.04296875 -75 M-104.04296875 -75 C-49.589052416432786 -75, 4.864863917134429 -75, 104.04296875 -75 M104.04296875 -75 C104.04296875 -25.043697491865508, 104.04296875 24.912605016268984, 104.04296875 75 M104.04296875 -75 C104.04296875 -37.04123676589495, 104.04296875 0.9175264682100988, 104.04296875 75 M104.04296875 75 C45.5421020209365 75, -12.958764708127006 75, -104.04296875 75 M104.04296875 75 C56.88798716137917 75, 9.733005572758344 75, -104.04296875 75 M-104.04296875 75 C-104.04296875 43.42797004404042, -104.04296875 11.855940088080843, -104.04296875 -75 M-104.04296875 75 C-104.04296875 19.768437116775544, -104.04296875 -35.46312576644891, -104.04296875 -75" stroke="#9370DB" stroke-width="1.3" fill="none" stroke-dasharray="0 0" style=""/></g><g class="annotation-group text" transform="translate(0, -51)"/><g class="label-group text" transform="translate(-58.2421875, -51)"><g class="label" style="font-weight: bolder" transform="translate(0,-12)"><foreignObject width="116.484375" height="24"><div xmlns="http://www.w3.org/1999/xhtml" style="display: table-cell; white-space: nowrap; line-height: 1.5; max-width: 152px; text-align: center;"><span class="nodeLabel markdown-node-label" style=""><p>PolicyCompiler</p></span></div></foreignObject></g></g><g class="members-group text" transform="translate(-92.04296875, -3)"/><g class="methods-group text" transform="translate(-92.04296875, 27)"><g class="label" style="" transform="translate(0,-12)"><foreignObject width="123.1875" height="24"><div xmlns="http://www.w3.org/1999/xhtml" style="display: table-cell; white-space: nowrap; line-height: 1.5; max-width: 169px; text-align: center;"><span class="nodeLabel markdown-node-label" style=""><p>+compile(bundle)</p></span></div></foreignObject></g><g class="label" style="" transform="translate(0,12)"><foreignObject width="125.84375" height="24"><div xmlns="http://www.w3.org/1999/xhtml" style="display: table-cell; white-space: nowrap; line-height: 1.5; max-width: 167px; text-align: center;"><span class="nodeLabel markdown-node-label" style=""><p>+emitSnapshots()</p></span></div></foreignObject></g></g><g class="divider" style=""><path d="M-104.04296875 -27 C-42.018558121306114 -27, 20.00585250738777 -27, 104.04296875 -27 M-104.04296875 -27 C-59.905683715232804 -27, -15.768398680465609 -27, 104.04296875 -27" stroke="#9370DB" stroke-width="1.3" fill="none" stroke-dasharray="0 0" style=""/></g><g class="divider" style=""><path d="M-104.04296875 -3 C-62.404748162359915 -3, -20.76652757471983 -3, 104.04296875 -3 M-104.04296875 -3 C-45.71127905527071 -3, 12.620410639458584 -3, 104.04296875 -3" stroke="#9370DB" stroke-width="1.3" fill="none" stroke-dasharray="0 0" style=""/></g></g><g class="node default" id="classId-AuditClient-5" transform="translate(523.76171875, 406)"><g class="basic label-container"><path d="M-118.05078125 -63 L118.05078125 -63 L118.05078125 63 L-118.05078125 63" stroke="none" stroke-width="0" fill="#ECECFF" style=""/><path d="M-118.05078125 -63 C-26.900136369458536 -63, 64.25050851108293 -63, 118.05078125 -63 M-118.05078125 -63 C-49.05673608383441 -63, 19.937309082331183 -63, 118.05078125 -63 M118.05078125 -63 C118.05078125 -14.559611661156708, 118.05078125 33.88077667768658, 118.05078125 63 M118.05078125 -63 C118.05078125 -28.254281730639903, 118.05078125 6.491436538720194, 118.05078125 63 M118.05078125 63 C33.271563647374705 63, -51.50765395525059 63, -118.05078125 63 M118.05078125 63 C55.27137874513602 63, -7.508023759727962 63, -118.05078125 63 M-118.05078125 63 C-118.05078125 32.30978958098714, -118.05078125 1.6195791619742792, -118.05078125 -63 M-118.05078125 63 C-118.05078125 19.50747090617181, -118.05078125 -23.985058187656378, -118.05078125 -63" stroke="#9370DB" stroke-width="1.3" fill="none" stroke-dasharray="0 0" style=""/></g><g class="annotation-group text" transform="translate(0, -39)"/><g class="label-group text" transform="translate(-42.6640625, -39)"><g class="label" style="font-weight: bolder" transform="translate(0,-12)"><foreignObject width="85.328125" height="24"><div xmlns="http://www.w3.org/1999/xhtml" style="display: table-cell; white-space: nowrap; line-height: 1.5; max-width: 126px; text-align: center;"><span class="nodeLabel markdown-node-label" style=""><p>AuditClient</p></span></div></foreignObject></g></g><g class="members-group text" transform="translate(-106.05078125, 9)"/><g class="methods-group text" transform="translate(-106.05078125, 39)"><g class="label" style="" transform="translate(0,-12)"><foreignObject width="169.4375" height="24"><div xmlns="http://www.w3.org/1999/xhtml" style="display: table-cell; white-space: nowrap; line-height: 1.5; max-width: 208px; text-align: center;"><span class="nodeLabel markdown-node-label" style=""><p>+record(event, payload)</p></span></div></foreignObject></g></g><g class="divider" style=""><path d="M-118.05078125 -15 C-34.12794560213071 -15, 49.79489004573858 -15, 118.05078125 -15 M-118.05078125 -15 C-70.69397539750598 -15, -23.33716954501196 -15, 118.05078125 -15" stroke="#9370DB" stroke-width="1.3" fill="none" stroke-dasharray="0 0" style=""/></g><g class="divider" style=""><path d="M-118.05078125 9 C-53.28855706410408 9, 11.473667121791834 9, 118.05078125 9 M-118.05078125 9 C-50.240163720984185 9, 17.57045380803163 9, 118.05078125 9" stroke="#9370DB" stroke-width="1.3" fill="none" stroke-dasharray="0 0" style=""/></g></g></g></g></g></svg>